<?xml version="1.0" encoding="utf-8"?>
<!-- Generator: Adobe Illustrator 21.1.0, SVG Export Plug-In . SVG Version: 6.00 Build 0)  -->
<svg version="1.1" id="Layer_1" xmlns="http://www.w3.org/2000/svg" xmlns:xlink="http://www.w3.org/1999/xlink" x="0px" y="0px"
	 viewBox="0 0 216 216" style="enable-background:new 0 0 216 216;" xml:space="preserve">
<style type="text/css">
	.st0{opacity:0;fill:#FFFFFF;}
	.st1{opacity:3.225806e-02;fill:#FCFCFC;}
	.st2{opacity:6.451613e-02;fill:#F9F8F8;}
	.st3{opacity:9.677419e-02;fill:#F5F5F4;}
	.st4{opacity:0.129;fill:#F2F1F1;}
	.st5{opacity:0.1613;fill:#EFEEED;}
	.st6{opacity:0.1935;fill:#EBEAE9;}
	.st7{opacity:0.2258;fill:#E8E7E5;}
	.st8{opacity:0.2581;fill:#E4E3E1;}
	.st9{opacity:0.2903;fill:#E1E0DE;}
	.st10{opacity:0.3226;fill:#DEDCDA;}
	.st11{opacity:0.3548;fill:#DBD9D6;}
	.st12{opacity:0.3871;fill:#D7D6D3;}
	.st13{opacity:0.4194;fill:#D4D2CF;}
	.st14{opacity:0.4516;fill:#D1CFCC;}
	.st15{opacity:0.4839;fill:#CECCC8;}
	.st16{opacity:0.5161;fill:#CAC9C5;}
	.st17{opacity:0.5484;fill:#C7C5C1;}
	.st18{opacity:0.5806;fill:#C4C2BE;}
	.st19{opacity:0.6129;fill:#C1BFBB;}
	.st20{opacity:0.6452;fill:#BEBCB7;}
	.st21{opacity:0.6774;fill:#BBB9B4;}
	.st22{opacity:0.7097;fill:#B8B6B0;}
	.st23{opacity:0.7419;fill:#B5B3AD;}
	.st24{opacity:0.7742;fill:#B2B0AA;}
	.st25{opacity:0.8065;fill:#AEADA6;}
	.st26{opacity:0.8387;fill:#ABAAA3;}
	.st27{opacity:0.871;fill:#A8A7A0;}
	.st28{opacity:0.9032;fill:#A5A49D;}
	.st29{opacity:0.9355;fill:#A2A19A;}
	.st30{opacity:0.9677;fill:#9F9E96;}
	.st31{fill:#9C9B93;}
	.st32{fill:url(#SVGID_1_);}
	.st33{fill:#F18B94;}
	.st34{fill:#B4CCD4;}
</style>
<g>
	<g>
		<path class="st0" d="M174.4,55.1l-47.7-15.7L78.9,23.8l-7.4-2.4l-3,6.8l4,1.3c0.7-1.1,2.1-1.6,3.4-1.2c1.5,0.5,2.4,2.2,1.9,3.7
			c-0.5,1.5-2.2,2.4-3.7,1.9c-1.3-0.4-2.1-1.7-2-3l-3.4-1.1l-3.2,8l4.2,0.7c0.6-0.6,1.8-1.1,3.1-0.6c1.5,0.5,2.4,2.2,1.9,3.7
			c-0.5,1.5-2.2,2.4-3.7,1.9c-1.3-0.4-2.1-1.7-2-3l-4-1.3l-2.5,7.7l3.8,1.9c0.7-1.1,2.1-1.7,3.4-1.2c1.5,0.5,2.4,2.2,1.9,3.7
			c-0.5,1.5-2.2,2.4-3.7,1.9c-1.3-0.4-2.1-1.7-2-3L62,48l-2.9,8.8l4,1.3c0.7-1.1,2.1-1.6,3.4-1.2c1.5,0.5,2.4,2.2,1.9,3.7
			c-0.5,1.5-2.2,2.4-3.7,1.9c-1.3-0.4-2.1-1.7-2-3l-4.2-0.6L56,66.4l4,1.3c0.7-1.1,2.1-1.7,3.4-1.2c1.5,0.5,2.4,2.2,1.9,3.7
			c-0.5,1.5-2.2,2.4-3.7,1.9c-1.3-0.4-2.1-1.7-2-3l-4-1.3L53,75.4l3.8,1.9c0.7-1.1,2.1-1.6,3.4-1.2c1.5,0.5,2.4,2.2,1.9,3.7
			c-0.5,1.5-2.2,2.4-3.7,1.9c-1.3-0.4-2.2-1.3-2.1-2.6l-3.9-1.7l-2.7,8.2l4,1.3c0.7-1.1,2.1-1.6,3.4-1.2c1.5,0.5,2.4,2.2,1.9,3.7
			c-0.5,1.5-2.2,2.4-3.7,1.9c-1.3-0.4-2.1-1.7-2-3l-4.1-0.8l-2.4,7.3l3.8,1.8c0.7-1.1,2.1-1.7,3.4-1.2c1.5,0.5,2.4,2.2,1.9,3.7
			c-0.5,1.5-2.2,2.4-3.7,1.9c-1.3-0.4-2.1-1.7-2-3l-4-1.3l-2.8,8.6l4.1,0.9c0.7-1.1,2.1-1.6,3.4-1.2c1.5,0.5,2.4,2.2,1.9,3.7
			c-0.5,1.5-2.2,2.4-3.7,1.9c-1.3-0.4-2.1-1.7-2-3l-4.2-0.5l-2.4,7.4l4,1.3c0.7-1.1,2.1-1.7,3.4-1.2c1.5,0.5,2.4,2.2,1.9,3.7
			c-0.5,1.5-2.2,2.4-3.7,1.9c-1.3-0.4-2.1-1.7-2-3l-4-1.3l-2.5,7.5l3.7,2c0.7-1.1,2.1-1.7,3.4-1.2c1.5,0.5,2.4,2.2,1.9,3.7
			c-0.5,1.5-2.2,2.4-3.7,1.9c-1.3-0.4-2.1-1.7-2-3l-3.3-1.1l-3.2,7.4l3.8,1.9c0.7-1.1,2.1-1.6,3.4-1.2c1.5,0.5,2.4,2.2,1.9,3.7
			c-0.5,1.5-2.2,2.4-3.7,1.9c-1.3-0.4-2.1-1.7-2-3l-3.4-1.1l-2.9,8.2l3.6,1.2c0.7-1.1,2.1-1.7,3.4-1.2c1.5,0.5,2.4,2.2,1.9,3.7
			c-0.5,1.5-2.2,2.4-3.7,1.9c-1.3-0.4-2.1-1.7-2-3l-4-1.3l-2.4,7.5l3.7,2.1c0.7-1.1,2.1-1.6,3.4-1.2c1.5,0.5,2.4,2.2,1.9,3.7
			c-0.5,1.5-2.2,2.4-3.7,1.9c-1.3-0.4-2.1-1.7-2-3l-4-1.3l-2,8.4l3.3,1.1c0.7-1.1,2.1-1.7,3.4-1.2c1.5,0.5,2.4,2.2,1.9,3.7
			c-0.5,1.5-2.2,2.4-3.7,1.9c-1.3-0.4-2.1-1.7-2-3l-4.2-0.5l-2.4,7.4l4,1.3c0.7-1.1,2.1-1.7,3.4-1.2c1.5,0.5,2.4,2.2,1.9,3.7
			c-0.5,1.5-2.2,2.4-3.7,1.9c-1.3-0.4-2.1-1.7-2-3l-4.1-0.9l-2.2,6.6l8.1,2.7l46.8,12.9l52.4,13.4c4.5,1.5,7-0.4,8.5-4.9l45.4-138.1
			C181.3,61.4,178.9,56.6,174.4,55.1z"/>
		<path class="st1" d="M174.8,55l-47.7-15.7L79.3,23.6l-7.4-2.4l-3,6.8l4,1.3c0.7-1.1,2.1-1.6,3.4-1.2c1.5,0.5,2.4,2.2,1.9,3.7
			c-0.5,1.5-2.2,2.4-3.7,1.9c-1.3-0.4-2.1-1.7-2-3L69,29.5l-3.2,8l4.2,0.7c0.6-0.6,1.8-1.1,3.1-0.6c1.5,0.5,2.4,2.2,1.9,3.7
			c-0.5,1.5-2.2,2.4-3.7,1.9c-1.3-0.4-2.1-1.7-2-3l-4-1.3l-2.5,7.7l3.8,1.9c0.7-1.1,2.1-1.7,3.4-1.2c1.5,0.5,2.4,2.2,1.9,3.7
			c-0.5,1.5-2.2,2.4-3.7,1.9c-1.3-0.4-2.1-1.7-2-3l-3.8-1.9l-2.9,8.8l4,1.3c0.7-1.1,2.1-1.6,3.4-1.2c1.5,0.5,2.4,2.2,1.9,3.7
			c-0.5,1.5-2.2,2.4-3.7,1.9c-1.3-0.4-2.1-1.7-2-3l-4.2-0.6l-2.5,7.5l4,1.3c0.7-1.1,2.1-1.7,3.4-1.2c1.5,0.5,2.4,2.2,1.9,3.7
			c-0.5,1.5-2.2,2.4-3.7,1.9c-1.3-0.4-2.1-1.7-2-3l-4-1.3l-2.5,7.6l3.8,1.9c0.7-1.1,2.1-1.6,3.4-1.2c1.5,0.5,2.4,2.2,1.9,3.7
			c-0.5,1.5-2.2,2.4-3.7,1.9c-1.3-0.4-2.2-1.3-2.1-2.6l-3.9-1.7l-2.7,8.2l4,1.3c0.7-1.1,2.1-1.6,3.4-1.2c1.5,0.5,2.4,2.2,1.9,3.7
			c-0.5,1.5-2.2,2.4-3.7,1.9c-1.3-0.4-2.1-1.7-2-3l-4.1-0.8l-2.4,7.3l3.8,1.8c0.7-1.1,2.1-1.7,3.4-1.2c1.5,0.5,2.4,2.2,1.9,3.7
			c-0.5,1.5-2.2,2.4-3.7,1.9c-1.3-0.4-2.1-1.7-2-3l-4-1.3l-2.8,8.6l4.1,0.9c0.7-1.1,2.1-1.6,3.4-1.2c1.5,0.5,2.4,2.2,1.9,3.7
			c-0.5,1.5-2.2,2.4-3.7,1.9c-1.3-0.4-2.1-1.7-2-3l-4.2-0.5l-2.4,7.4l4,1.3c0.7-1.1,2.1-1.7,3.4-1.2c1.5,0.5,2.4,2.2,1.9,3.7
			c-0.5,1.5-2.2,2.4-3.7,1.9c-1.3-0.4-2.1-1.7-2-3l-4-1.3l-2.5,7.5l3.7,2c0.7-1.1,2.1-1.7,3.4-1.2c1.5,0.5,2.4,2.2,1.9,3.7
			c-0.5,1.5-2.2,2.4-3.7,1.9c-1.3-0.4-2.1-1.7-2-3l-3.3-1.1l-3.2,7.4l3.8,1.9c0.7-1.1,2.1-1.6,3.4-1.2c1.5,0.5,2.4,2.2,1.9,3.7
			c-0.5,1.5-2.2,2.4-3.7,1.9c-1.3-0.4-2.1-1.7-2-3l-3.4-1.1l-2.9,8.2l3.6,1.2c0.7-1.1,2.1-1.7,3.4-1.2c1.5,0.5,2.4,2.2,1.9,3.7
			c-0.5,1.5-2.2,2.4-3.7,1.9c-1.3-0.4-2.1-1.7-2-3l-4-1.3l-2.4,7.5l3.7,2.1c0.7-1.1,2.1-1.6,3.4-1.2c1.5,0.5,2.4,2.2,1.9,3.7
			c-0.5,1.5-2.2,2.4-3.7,1.9c-1.3-0.4-2.1-1.7-2-3l-4-1.3l-2,8.4l3.3,1.1c0.7-1.1,2.1-1.7,3.4-1.2c1.5,0.5,2.4,2.2,1.9,3.7
			c-0.5,1.5-2.2,2.4-3.7,1.9c-1.3-0.4-2.1-1.7-2-3l-4.2-0.5l-2.4,7.4l4,1.3c0.7-1.1,2.1-1.7,3.4-1.2c1.5,0.5,2.4,2.2,1.9,3.7
			c-0.5,1.5-2.2,2.4-3.7,1.9c-1.3-0.4-2.1-1.7-2-3l-4.1-0.9l-2.2,6.6l8.1,2.7l46.8,13l52.2,13.5c4.5,1.5,7.1-0.4,8.6-4.9l45.4-138.3
			C181.7,61.2,179.3,56.4,174.8,55z"/>
		<path class="st2" d="M175.2,54.8l-47.7-15.7L79.7,23.4L72.3,21l-3,6.8l4,1.3c0.7-1.1,2.1-1.6,3.4-1.2c1.5,0.5,2.4,2.2,1.9,3.7
			c-0.5,1.5-2.2,2.4-3.7,1.9c-1.3-0.4-2.1-1.7-2-3l-3.4-1.1l-3.2,8l4.2,0.7c0.6-0.6,1.8-1.1,3.1-0.6c1.5,0.5,2.4,2.2,1.9,3.7
			c-0.5,1.5-2.2,2.4-3.7,1.9c-1.3-0.4-2.1-1.7-2-3l-4-1.3l-2.5,7.7l3.8,1.9c0.7-1.1,2.1-1.7,3.4-1.2c1.5,0.5,2.4,2.2,1.9,3.7
			c-0.5,1.5-2.2,2.4-3.7,1.9c-1.3-0.4-2.1-1.7-2-3l-3.8-1.9l-2.9,8.8l4,1.3c0.7-1.1,2.1-1.6,3.4-1.2c1.5,0.5,2.4,2.2,1.9,3.7
			c-0.5,1.5-2.2,2.4-3.7,1.9c-1.3-0.4-2.1-1.7-2-3l-4.2-0.6L56.8,66l4,1.3c0.7-1.1,2.1-1.7,3.4-1.2c1.5,0.5,2.4,2.2,1.9,3.7
			c-0.5,1.5-2.2,2.4-3.7,1.9c-1.3-0.4-2.1-1.7-2-3l-4-1.3L53.8,75l3.8,1.9c0.7-1.1,2.1-1.6,3.4-1.2c1.5,0.5,2.4,2.2,1.9,3.7
			c-0.5,1.5-2.2,2.4-3.7,1.9c-1.3-0.4-2.2-1.3-2.1-2.6l-3.9-1.7l-2.7,8.2l4,1.3c0.7-1.1,2.1-1.6,3.4-1.2c1.5,0.5,2.4,2.2,1.9,3.7
			c-0.5,1.5-2.2,2.4-3.7,1.9c-1.3-0.4-2.1-1.7-2-3l-4.1-0.8l-2.4,7.3l3.8,1.8c0.7-1.1,2.1-1.7,3.4-1.2c1.5,0.5,2.4,2.2,1.9,3.7
			c-0.5,1.5-2.2,2.4-3.7,1.9c-1.3-0.4-2.1-1.7-2-3l-4-1.3l-2.8,8.6l4.1,0.9c0.7-1.1,2.1-1.6,3.4-1.2c1.5,0.5,2.4,2.2,1.9,3.7
			c-0.5,1.5-2.2,2.4-3.7,1.9c-1.3-0.4-2.1-1.7-2-3l-4.2-0.5l-2.4,7.4l4,1.3c0.7-1.1,2.1-1.7,3.4-1.2c1.5,0.5,2.4,2.2,1.9,3.7
			c-0.5,1.5-2.2,2.4-3.7,1.9c-1.3-0.4-2.1-1.7-2-3l-4-1.3l-2.5,7.5l3.7,2c0.7-1.1,2.1-1.7,3.4-1.2c1.5,0.5,2.4,2.2,1.9,3.7
			c-0.5,1.5-2.2,2.4-3.7,1.9c-1.3-0.4-2.1-1.7-2-3l-3.3-1.1l-3.2,7.4l3.8,1.9c0.7-1.1,2.1-1.6,3.4-1.2c1.5,0.5,2.4,2.2,1.9,3.7
			c-0.5,1.5-2.2,2.4-3.7,1.9c-1.3-0.4-2.1-1.7-2-3l-3.4-1.1l-2.9,8.2l3.6,1.2c0.7-1.1,2.1-1.7,3.4-1.2c1.5,0.5,2.4,2.2,1.9,3.7
			c-0.5,1.5-2.2,2.4-3.7,1.9c-1.3-0.4-2.1-1.7-2-3l-4-1.3l-2.4,7.5l3.7,2.1c0.7-1.1,2.1-1.6,3.4-1.2c1.5,0.5,2.4,2.2,1.9,3.7
			c-0.5,1.5-2.2,2.4-3.7,1.9c-1.3-0.4-2.1-1.7-2-3l-4-1.3l-2,8.4l3.3,1.1c0.7-1.1,2.1-1.7,3.4-1.2c1.5,0.5,2.4,2.2,1.9,3.7
			c-0.5,1.5-2.2,2.4-3.7,1.9c-1.3-0.4-2.1-1.7-2-3l-4.2-0.5l-2.4,7.4l4,1.3c0.7-1.1,2.1-1.7,3.4-1.2c1.5,0.5,2.4,2.2,1.9,3.7
			c-0.5,1.5-2.2,2.4-3.7,1.9c-1.3-0.4-2.1-1.7-2-3l-4.1-0.9l-2.2,6.6l8.1,2.7l46.9,13.1l52,13.6c4.5,1.5,7.2-0.5,8.6-4.9l45.5-138.4
			C182.1,61,179.7,56.2,175.2,54.8z"/>
		<path class="st3" d="M175.6,54.6l-47.7-15.7L80.2,23.2l-7.4-2.4l-3,6.8l4,1.3c0.7-1.1,2.1-1.6,3.4-1.2c1.5,0.5,2.4,2.2,1.9,3.7
			c-0.5,1.5-2.2,2.4-3.7,1.9c-1.3-0.4-2.1-1.7-2-3l-3.4-1.1l-3.2,8l4.2,0.7c0.6-0.6,1.8-1.1,3.1-0.6c1.5,0.5,2.4,2.2,1.9,3.7
			c-0.5,1.5-2.2,2.4-3.7,1.9c-1.3-0.4-2.1-1.7-2-3l-4-1.3l-2.5,7.7l3.8,1.9c0.7-1.1,2.1-1.7,3.4-1.2c1.5,0.5,2.4,2.2,1.9,3.7
			c-0.5,1.5-2.2,2.4-3.7,1.9c-1.3-0.4-2.1-1.7-2-3l-3.8-1.9l-2.9,8.8l4,1.3c0.7-1.1,2.1-1.6,3.4-1.2c1.5,0.5,2.4,2.2,1.9,3.7
			c-0.5,1.5-2.2,2.4-3.7,1.9c-1.3-0.4-2.1-1.7-2-3l-4.2-0.6l-2.5,7.5l4,1.3c0.7-1.1,2.1-1.7,3.4-1.2c1.5,0.5,2.4,2.2,1.9,3.7
			c-0.5,1.5-2.2,2.4-3.7,1.9c-1.3-0.4-2.1-1.7-2-3l-4-1.3l-2.5,7.6l3.8,1.9c0.7-1.1,2.1-1.6,3.4-1.2c1.5,0.5,2.4,2.2,1.9,3.7
			c-0.5,1.5-2.2,2.4-3.7,1.9c-1.3-0.4-2.2-1.3-2.1-2.6l-3.8-1.7l-2.7,8.2l4,1.3c0.7-1.1,2.1-1.6,3.4-1.2c1.5,0.5,2.4,2.2,1.9,3.7
			c-0.5,1.5-2.2,2.4-3.7,1.9c-1.3-0.4-2.1-1.7-2-3l-4.1-0.8L47.9,94l3.8,1.8c0.7-1.1,2.1-1.7,3.4-1.2c1.5,0.5,2.4,2.2,1.9,3.7
			c-0.5,1.5-2.2,2.4-3.7,1.9c-1.3-0.4-2.1-1.7-2-3l-4-1.3l-2.8,8.6l4.1,0.9c0.7-1.1,2.1-1.6,3.4-1.2c1.5,0.5,2.4,2.2,1.9,3.7
			c-0.5,1.5-2.2,2.4-3.7,1.9c-1.3-0.4-2.1-1.7-2-3l-4.2-0.5l-2.4,7.4l4,1.3c0.7-1.1,2.1-1.7,3.4-1.2c1.5,0.5,2.4,2.2,1.9,3.7
			c-0.5,1.5-2.2,2.4-3.7,1.9c-1.3-0.4-2.1-1.7-2-3l-4-1.3l-2.5,7.5l3.7,2c0.7-1.1,2.1-1.7,3.4-1.2c1.5,0.5,2.4,2.2,1.9,3.7
			c-0.5,1.5-2.2,2.4-3.7,1.9c-1.3-0.4-2.1-1.7-2-3l-3.3-1.1l-3.2,7.4l3.8,1.9c0.7-1.1,2.1-1.6,3.4-1.2c1.5,0.5,2.4,2.2,1.9,3.7
			c-0.5,1.5-2.2,2.4-3.7,1.9c-1.3-0.4-2.1-1.7-2-3l-3.4-1.1l-2.9,8.2l3.6,1.2c0.7-1.1,2.1-1.7,3.4-1.2c1.5,0.5,2.4,2.2,1.9,3.7
			c-0.5,1.5-2.2,2.4-3.7,1.9c-1.3-0.4-2.1-1.7-2-3l-4-1.3l-2.4,7.5l3.7,2.1c0.7-1.1,2.1-1.6,3.4-1.2c1.5,0.5,2.4,2.2,1.9,3.7
			c-0.5,1.5-2.2,2.4-3.7,1.9c-1.3-0.4-2.1-1.7-2-3l-4-1.3l-2,8.4l3.3,1.1c0.7-1.1,2.1-1.7,3.4-1.2c1.5,0.5,2.4,2.2,1.9,3.7
			c-0.5,1.5-2.2,2.4-3.7,1.9c-1.3-0.4-2.1-1.7-2-3l-4.2-0.5l-2.4,7.4l4,1.3c0.7-1.1,2.1-1.7,3.4-1.2c1.5,0.5,2.4,2.2,1.9,3.7
			c-0.5,1.5-2.2,2.4-3.7,1.9c-1.3-0.4-2.1-1.7-2-3l-4.1-0.9l-2.2,6.6L28,182l46.9,13.2l51.9,13.6c4.5,1.5,7.3-0.5,8.7-5L181,65.3
			C182.5,60.8,180.1,56.1,175.6,54.6z"/>
		<path class="st4" d="M176,54.4l-47.7-15.7L80.6,23.1l-7.4-2.4l-2.9,6.7l4,1.3c0.7-1.1,2.1-1.6,3.4-1.2c1.5,0.5,2.4,2.2,1.9,3.7
			c-0.5,1.5-2.2,2.4-3.7,1.9c-1.3-0.4-2.1-1.7-2-3l-3.4-1.1l-3.2,8l4.2,0.7c0.6-0.6,1.8-1.1,3.1-0.6c1.5,0.5,2.4,2.2,1.9,3.7
			c-0.5,1.5-2.2,2.4-3.7,1.9c-1.3-0.4-2.1-1.7-2-3l-4-1.3l-2.5,7.7l3.8,1.9c0.7-1.1,2.1-1.7,3.4-1.2c1.5,0.5,2.4,2.2,1.9,3.7
			c-0.5,1.5-2.2,2.4-3.7,1.9c-1.3-0.4-2.1-1.7-2-3l-3.8-1.9L60.8,56l4,1.3c0.7-1.1,2.1-1.6,3.4-1.2c1.5,0.5,2.4,2.2,1.9,3.7
			c-0.5,1.5-2.2,2.4-3.7,1.9c-1.3-0.4-2.1-1.7-2-3l-4.2-0.6l-2.5,7.5l4,1.3c0.7-1.1,2.1-1.7,3.4-1.2c1.5,0.5,2.4,2.2,1.9,3.7
			c-0.5,1.5-2.2,2.4-3.7,1.9c-1.3-0.4-2.1-1.7-2-3l-4-1.3l-2.5,7.6l3.8,1.9c0.7-1.1,2.1-1.6,3.4-1.2c1.5,0.5,2.4,2.2,1.9,3.7
			c-0.5,1.5-2.2,2.4-3.7,1.9c-1.3-0.4-2.2-1.3-2.1-2.6L54,76.5l-2.7,8.2l4,1.3c0.7-1.1,2.1-1.6,3.4-1.2c1.5,0.5,2.4,2.2,1.9,3.7
			c-0.5,1.5-2.2,2.4-3.7,1.9c-1.3-0.4-2.1-1.7-2-3l-4.1-0.8l-2.4,7.3l3.8,1.8c0.7-1.1,2.1-1.7,3.4-1.2c1.5,0.5,2.4,2.2,1.9,3.7
			c-0.5,1.5-2.2,2.4-3.7,1.9c-1.3-0.4-2.1-1.7-2-3l-4-1.3l-2.8,8.6l4.1,0.9c0.7-1.1,2.1-1.6,3.4-1.2c1.5,0.5,2.4,2.2,1.9,3.7
			c-0.5,1.5-2.2,2.4-3.7,1.9c-1.3-0.4-2.1-1.7-2-3l-4.2-0.5l-2.4,7.4l4,1.3c0.7-1.1,2.1-1.7,3.4-1.2c1.5,0.5,2.4,2.2,1.9,3.7
			c-0.5,1.5-2.2,2.4-3.7,1.9c-1.3-0.4-2.1-1.7-2-3l-4-1.3l-2.5,7.5l3.7,2c0.7-1.1,2.1-1.7,3.4-1.2c1.5,0.5,2.4,2.2,1.9,3.7
			c-0.5,1.5-2.2,2.4-3.7,1.9c-1.3-0.4-2.1-1.7-2-3l-3.3-1.1l-3.2,7.4l3.8,1.9c0.7-1.1,2.1-1.6,3.4-1.2c1.5,0.5,2.4,2.2,1.9,3.7
			c-0.5,1.5-2.2,2.4-3.7,1.9c-1.3-0.4-2.1-1.7-2-3l-3.4-1.1l-2.9,8.2l3.6,1.2c0.7-1.1,2.1-1.7,3.4-1.2c1.5,0.5,2.4,2.2,1.9,3.7
			c-0.5,1.5-2.2,2.4-3.7,1.9c-1.3-0.4-2.1-1.7-2-3l-4-1.3l-2.4,7.5l3.7,2.1c0.7-1.1,2.1-1.6,3.4-1.2c1.5,0.5,2.4,2.2,1.9,3.7
			c-0.5,1.5-2.2,2.4-3.7,1.9c-1.3-0.4-2.1-1.7-2-3l-4-1.3l-2,8.4l3.3,1.1c0.7-1.1,2.1-1.7,3.4-1.2c1.5,0.5,2.4,2.2,1.9,3.7
			c-0.5,1.5-2.2,2.4-3.7,1.9c-1.3-0.4-2.1-1.7-2-3l-4.2-0.5l-2.4,7.4l4,1.3c0.7-1.1,2.1-1.7,3.4-1.2c1.5,0.5,2.4,2.2,1.9,3.7
			c-0.5,1.5-2.2,2.4-3.7,1.9c-1.3-0.4-2.1-1.7-2-3l-4.1-0.9l-2.2,6.6l8.1,2.7l46.9,13.3l51.7,13.7c4.5,1.5,7.3-0.5,8.8-5l45.6-138.7
			C182.9,60.6,180.5,55.9,176,54.4z"/>
		<path class="st5" d="M176.4,54.2l-47.7-15.7L81,22.9l-7.4-2.4l-2.9,6.7l4,1.3c0.7-1.1,2.1-1.6,3.4-1.2c1.5,0.5,2.4,2.2,1.9,3.7
			c-0.5,1.5-2.2,2.4-3.7,1.9c-1.3-0.4-2.1-1.7-2-3l-3.4-1.1l-3.2,8l4.2,0.7c0.6-0.6,1.8-1.1,3.1-0.6c1.5,0.5,2.4,2.2,1.9,3.7
			c-0.5,1.5-2.2,2.4-3.7,1.9c-1.3-0.4-2.1-1.7-2-3l-4-1.3l-2.5,7.7l3.8,1.9c0.7-1.1,2.1-1.7,3.4-1.2c1.5,0.5,2.4,2.2,1.9,3.7
			c-0.5,1.5-2.2,2.4-3.7,1.9c-1.3-0.4-2.1-1.7-2-3L64.1,47l-2.9,8.8l4,1.3c0.7-1.1,2.1-1.6,3.4-1.2c1.5,0.5,2.4,2.2,1.9,3.7
			c-0.5,1.5-2.2,2.4-3.7,1.9c-1.3-0.4-2.1-1.7-2-3l-4.2-0.6L58,65.4l4,1.3c0.7-1.1,2.1-1.7,3.4-1.2c1.5,0.5,2.4,2.2,1.9,3.7
			c-0.5,1.5-2.2,2.4-3.7,1.9c-1.3-0.4-2.1-1.7-2-3l-4-1.3l-2.5,7.6l3.8,1.9c0.7-1.1,2.1-1.6,3.4-1.2c1.5,0.5,2.4,2.2,1.9,3.7
			c-0.5,1.5-2.2,2.4-3.7,1.9c-1.3-0.4-2.2-1.3-2.1-2.6l-3.8-1.7l-2.7,8.2l4,1.3c0.7-1.1,2.1-1.6,3.4-1.2c1.5,0.5,2.4,2.2,1.9,3.7
			c-0.5,1.5-2.2,2.4-3.7,1.9c-1.3-0.4-2.1-1.7-2-3l-4.1-0.8l-2.4,7.3l3.8,1.8c0.7-1.1,2.1-1.7,3.4-1.2c1.5,0.5,2.4,2.2,1.9,3.7
			c-0.5,1.5-2.2,2.4-3.7,1.9c-1.3-0.4-2.1-1.7-2-3l-4-1.3l-2.8,8.6l4.1,0.9c0.7-1.1,2.1-1.6,3.4-1.2c1.5,0.5,2.4,2.2,1.9,3.7
			c-0.5,1.5-2.2,2.4-3.7,1.9c-1.3-0.4-2.1-1.7-2-3l-4.2-0.5l-2.4,7.4l4,1.3c0.7-1.1,2.1-1.7,3.4-1.2c1.5,0.5,2.4,2.2,1.9,3.7
			c-0.5,1.5-2.2,2.4-3.7,1.9c-1.3-0.4-2.1-1.7-2-3l-4-1.3l-2.5,7.5l3.7,2c0.7-1.1,2.1-1.7,3.4-1.2c1.5,0.5,2.4,2.2,1.9,3.7
			c-0.5,1.5-2.2,2.4-3.7,1.9c-1.3-0.4-2.1-1.7-2-3l-3.3-1.1l-3.2,7.4l3.8,1.9c0.7-1.1,2.1-1.6,3.4-1.2c1.5,0.5,2.4,2.2,1.9,3.7
			c-0.5,1.5-2.2,2.4-3.7,1.9c-1.3-0.4-2.1-1.7-2-3l-3.4-1.1l-2.9,8.2l3.6,1.2c0.7-1.1,2.1-1.7,3.4-1.2c1.5,0.5,2.4,2.2,1.9,3.7
			c-0.5,1.5-2.2,2.4-3.7,1.9c-1.3-0.4-2.1-1.7-2-3l-4-1.3l-2.4,7.5l3.7,2.1c0.7-1.1,2.1-1.6,3.4-1.2c1.5,0.5,2.4,2.2,1.9,3.7
			c-0.5,1.5-2.2,2.4-3.7,1.9c-1.3-0.4-2.1-1.7-2-3l-4-1.3l-2,8.4l3.3,1.1c0.7-1.1,2.1-1.7,3.4-1.2c1.5,0.5,2.4,2.2,1.9,3.7
			c-0.5,1.5-2.2,2.4-3.7,1.9c-1.3-0.4-2.1-1.7-2-3l-4.2-0.5l-2.4,7.4l4,1.3c0.7-1.1,2.1-1.7,3.4-1.2c1.5,0.5,2.4,2.2,1.9,3.7
			c-0.5,1.5-2.2,2.4-3.7,1.9c-1.3-0.4-2.1-1.7-2-3l-4.1-0.9l-2.2,6.6l8.1,2.7l47,13.4l51.5,13.8c4.5,1.5,7.4-0.5,8.9-5l45.6-138.9
			C183.3,60.4,180.9,55.7,176.4,54.2z"/>
		<path class="st6" d="M176.8,54l-47.7-15.7L81.4,22.7l-7.4-2.4L71,27l4,1.3c0.7-1.1,2.1-1.6,3.4-1.2c1.5,0.5,2.4,2.2,1.9,3.7
			c-0.5,1.5-2.2,2.4-3.7,1.9c-1.3-0.4-2.1-1.7-2-3l-3.4-1.1l-3.2,8l4.2,0.7c0.6-0.6,1.8-1.1,3.1-0.6c1.5,0.5,2.4,2.2,1.9,3.7
			c-0.5,1.5-2.2,2.4-3.7,1.9c-1.3-0.4-2.1-1.7-2-3l-4-1.3l-2.5,7.7l3.8,1.9c0.7-1.1,2.1-1.7,3.4-1.2c1.5,0.5,2.4,2.2,1.9,3.7
			c-0.5,1.5-2.2,2.4-3.7,1.9c-1.3-0.4-2.1-1.7-2-3l-3.8-1.9l-2.9,8.8l4,1.3c0.7-1.1,2.1-1.6,3.4-1.2c1.5,0.5,2.4,2.2,1.9,3.7
			c-0.5,1.5-2.2,2.4-3.7,1.9c-1.3-0.4-2.1-1.7-2-3l-4.2-0.6l-2.5,7.5l4,1.3c0.7-1.1,2.1-1.7,3.4-1.2c1.5,0.5,2.4,2.2,1.9,3.7
			c-0.5,1.5-2.2,2.4-3.7,1.9c-1.3-0.4-2.1-1.7-2-3l-4-1.3l-2.5,7.6l3.8,1.9c0.7-1.1,2.1-1.6,3.4-1.2c1.5,0.5,2.4,2.2,1.9,3.7
			c-0.5,1.5-2.2,2.4-3.7,1.9c-1.3-0.4-2.2-1.3-2.1-2.6l-3.8-1.7l-2.7,8.2l4,1.3c0.7-1.1,2.1-1.6,3.4-1.2c1.5,0.5,2.4,2.2,1.9,3.7
			c-0.5,1.5-2.2,2.4-3.7,1.9c-1.3-0.4-2.1-1.7-2-3l-4.1-0.8l-2.4,7.3l3.8,1.8c0.7-1.1,2.1-1.7,3.4-1.2c1.5,0.5,2.4,2.2,1.9,3.7
			c-0.5,1.5-2.2,2.4-3.7,1.9c-1.3-0.4-2.1-1.7-2-3l-4-1.3l-2.8,8.6l4.1,0.9c0.7-1.1,2.1-1.6,3.4-1.2c1.5,0.5,2.4,2.2,1.9,3.7
			c-0.5,1.5-2.2,2.4-3.7,1.9c-1.3-0.4-2.1-1.7-2-3l-4.2-0.5l-2.4,7.4l4,1.3c0.7-1.1,2.1-1.7,3.4-1.2c1.5,0.5,2.4,2.2,1.9,3.7
			c-0.5,1.5-2.2,2.4-3.7,1.9c-1.3-0.4-2.1-1.7-2-3l-4-1.3l-2.5,7.5l3.7,2c0.7-1.1,2.1-1.7,3.4-1.2c1.5,0.5,2.4,2.2,1.9,3.7
			c-0.5,1.5-2.2,2.4-3.7,1.9c-1.3-0.4-2.1-1.7-2-3l-3.3-1.1l-3.2,7.4l3.8,1.9c0.7-1.1,2.1-1.6,3.4-1.2c1.5,0.5,2.4,2.2,1.9,3.7
			c-0.5,1.5-2.2,2.4-3.7,1.9c-1.3-0.4-2.1-1.7-2-3l-3.4-1.1l-2.9,8.2l3.6,1.2c0.7-1.1,2.1-1.7,3.4-1.2c1.5,0.5,2.4,2.2,1.9,3.7
			c-0.5,1.5-2.2,2.4-3.7,1.9c-1.3-0.4-2.1-1.7-2-3l-4-1.3l-2.4,7.5l3.7,2.1c0.7-1.1,2.1-1.6,3.4-1.2c1.5,0.5,2.4,2.2,1.9,3.7
			c-0.5,1.5-2.2,2.4-3.7,1.9c-1.3-0.4-2.1-1.7-2-3l-4-1.3l-2,8.4l3.3,1.1c0.7-1.1,2.1-1.7,3.4-1.2c1.5,0.5,2.4,2.2,1.9,3.7
			c-0.5,1.5-2.2,2.4-3.7,1.9c-1.3-0.4-2.1-1.7-2-3l-4.2-0.5l-2.4,7.4l4,1.3c0.7-1.1,2.1-1.7,3.4-1.2c1.5,0.5,2.4,2.2,1.9,3.7
			c-0.5,1.5-2.2,2.4-3.7,1.9c-1.3-0.4-2.1-1.7-2-3l-4.1-0.9l-2.2,6.6l8.1,2.7l47,13.5l51.4,13.8c4.5,1.5,7.5-0.5,8.9-5l45.7-139
			C183.7,60.2,181.3,55.5,176.8,54z"/>
		<path class="st7" d="M177.2,53.9l-47.7-15.7L81.8,22.5l-7.4-2.4l-2.9,6.7l4,1.3c0.7-1.1,2.1-1.6,3.4-1.2c1.5,0.5,2.4,2.2,1.9,3.7
			c-0.5,1.5-2.2,2.4-3.7,1.9c-1.3-0.4-2.1-1.7-2-3l-3.4-1.1l-3.2,8l4.2,0.7c0.6-0.6,1.8-1.1,3.1-0.6c1.5,0.5,2.4,2.2,1.9,3.7
			c-0.5,1.5-2.2,2.4-3.7,1.9c-1.3-0.4-2.1-1.7-2-3l-4-1.3l-2.5,7.7l3.8,1.9c0.7-1.1,2.1-1.7,3.4-1.2c1.5,0.5,2.4,2.2,1.9,3.7
			c-0.5,1.5-2.2,2.4-3.7,1.9c-1.3-0.4-2.1-1.7-2-3l-3.8-1.9L62,55.4l4,1.3c0.7-1.1,2.1-1.6,3.4-1.2c1.5,0.5,2.4,2.2,1.9,3.7
			c-0.5,1.5-2.2,2.4-3.7,1.9c-1.3-0.4-2.1-1.7-2-3l-4.2-0.6L58.8,65l4,1.3c0.7-1.1,2.1-1.7,3.4-1.2c1.5,0.5,2.4,2.2,1.9,3.7
			c-0.5,1.5-2.2,2.4-3.7,1.9c-1.3-0.4-2.1-1.7-2-3l-4-1.3L55.9,74l3.8,1.9c0.7-1.1,2.1-1.6,3.4-1.2c1.5,0.5,2.4,2.2,1.9,3.7
			c-0.5,1.5-2.2,2.4-3.7,1.9c-1.3-0.4-2.2-1.3-2.1-2.6l-3.8-1.7l-2.7,8.2l4,1.3c0.7-1.1,2.1-1.6,3.4-1.2c1.5,0.5,2.4,2.2,1.9,3.7
			c-0.5,1.5-2.2,2.4-3.7,1.9c-1.3-0.4-2.1-1.7-2-3L52,85.9l-2.4,7.3l3.8,1.8c0.7-1.1,2.1-1.7,3.4-1.2c1.5,0.5,2.4,2.2,1.9,3.7
			c-0.5,1.5-2.2,2.4-3.7,1.9c-1.3-0.4-2.1-1.7-2-3L49,95l-2.8,8.6l4.1,0.9c0.7-1.1,2.1-1.6,3.4-1.2c1.5,0.5,2.4,2.2,1.9,3.7
			c-0.5,1.5-2.2,2.4-3.7,1.9c-1.3-0.4-2.1-1.7-2-3l-4.2-0.5l-2.4,7.4l4,1.3c0.7-1.1,2.1-1.7,3.4-1.2c1.5,0.5,2.4,2.2,1.9,3.7
			c-0.5,1.5-2.2,2.4-3.7,1.9c-1.3-0.4-2.1-1.7-2-3l-4-1.3l-2.5,7.5l3.7,2c0.7-1.1,2.1-1.7,3.4-1.2c1.5,0.5,2.4,2.2,1.9,3.7
			c-0.5,1.5-2.2,2.4-3.7,1.9c-1.3-0.4-2.1-1.7-2-3l-3.3-1.1l-3.2,7.4l3.8,1.9c0.7-1.1,2.1-1.6,3.4-1.2c1.5,0.5,2.4,2.2,1.9,3.7
			c-0.5,1.5-2.2,2.4-3.7,1.9c-1.3-0.4-2.1-1.7-2-3l-3.4-1.1l-2.9,8.2l3.6,1.2c0.7-1.1,2.1-1.7,3.4-1.2c1.5,0.5,2.4,2.2,1.9,3.7
			c-0.5,1.5-2.2,2.4-3.7,1.9c-1.3-0.4-2.1-1.7-2-3l-4-1.3l-2.4,7.5l3.7,2.1c0.7-1.1,2.1-1.6,3.4-1.2c1.5,0.5,2.4,2.2,1.9,3.7
			c-0.5,1.5-2.2,2.4-3.7,1.9c-1.3-0.4-2.1-1.7-2-3l-4-1.3l-2,8.4l3.3,1.1c0.7-1.1,2.1-1.7,3.4-1.2c1.5,0.5,2.4,2.2,1.9,3.7
			c-0.5,1.5-2.2,2.4-3.7,1.9c-1.3-0.4-2.1-1.7-2-3l-4.2-0.5l-2.4,7.4l4,1.3c0.7-1.1,2.1-1.7,3.4-1.2c1.5,0.5,2.4,2.2,1.9,3.7
			c-0.5,1.5-2.2,2.4-3.7,1.9c-1.3-0.4-2.1-1.7-2-3l-4.1-0.9l-2.2,6.6l8.1,2.7l47,13.6l51.2,13.9c4.5,1.5,7.5-0.5,9-5l45.7-139.2
			C184.1,60,181.7,55.3,177.2,53.9z"/>
		<path class="st8" d="M177.6,53.7L129.9,38L82.2,22.3l-7.4-2.4l-2.9,6.7l4,1.3c0.7-1.1,2.1-1.6,3.4-1.2c1.5,0.5,2.4,2.2,1.9,3.7
			c-0.5,1.5-2.2,2.4-3.7,1.9c-1.3-0.4-2.1-1.7-2-3l-3.4-1.1l-3.2,8l4.2,0.7c0.6-0.6,1.8-1.1,3.1-0.6c1.5,0.5,2.4,2.2,1.9,3.7
			c-0.5,1.5-2.2,2.4-3.7,1.9c-1.3-0.4-2.1-1.7-2-3l-4-1.3l-2.5,7.7l3.8,1.9c0.7-1.1,2.1-1.7,3.4-1.2c1.5,0.5,2.4,2.2,1.9,3.7
			c-0.5,1.5-2.2,2.4-3.7,1.9c-1.3-0.4-2.1-1.7-2-3l-3.8-1.9l-2.9,8.8l4,1.3c0.7-1.1,2.1-1.6,3.4-1.2c1.5,0.5,2.4,2.2,1.9,3.7
			c-0.5,1.5-2.2,2.4-3.7,1.9c-1.3-0.4-2.1-1.7-2-3l-4.2-0.6l-2.5,7.5l4,1.3c0.7-1.1,2.1-1.7,3.4-1.2c1.5,0.5,2.4,2.2,1.9,3.7
			c-0.5,1.5-2.2,2.4-3.7,1.9c-1.3-0.4-2.1-1.7-2-3l-4-1.3l-2.5,7.6l3.8,1.9c0.7-1.1,2.1-1.6,3.4-1.2c1.5,0.5,2.4,2.2,1.9,3.7
			c-0.5,1.5-2.2,2.4-3.7,1.9c-1.3-0.4-2.2-1.3-2.1-2.6l-3.8-1.7L53,83.9l4,1.3c0.7-1.1,2.1-1.6,3.4-1.2c1.5,0.5,2.4,2.2,1.9,3.7
			c-0.5,1.5-2.2,2.4-3.7,1.9c-1.3-0.4-2.1-1.7-2-3l-4.1-0.8L50,93l3.8,1.8c0.7-1.1,2.1-1.7,3.4-1.2c1.5,0.5,2.4,2.2,1.9,3.7
			c-0.5,1.5-2.2,2.4-3.7,1.9c-1.3-0.4-2.1-1.7-2-3l-4-1.3l-2.8,8.6l4.1,0.9c0.7-1.1,2.1-1.6,3.4-1.2c1.5,0.5,2.4,2.2,1.9,3.7
			c-0.5,1.5-2.2,2.4-3.7,1.9c-1.3-0.4-2.1-1.7-2-3l-4.2-0.5l-2.4,7.4l4,1.3c0.7-1.1,2.1-1.7,3.4-1.2c1.5,0.5,2.4,2.2,1.9,3.7
			c-0.5,1.5-2.2,2.4-3.7,1.9c-1.3-0.4-2.1-1.7-2-3l-4-1.3l-2.5,7.5l3.7,2c0.7-1.1,2.1-1.7,3.4-1.2c1.5,0.5,2.4,2.2,1.9,3.7
			c-0.5,1.5-2.2,2.4-3.7,1.9c-1.3-0.4-2.1-1.7-2-3l-3.3-1.1l-3.2,7.4l3.8,1.9c0.7-1.1,2.1-1.6,3.4-1.2c1.5,0.5,2.4,2.2,1.9,3.7
			c-0.5,1.5-2.2,2.4-3.7,1.9c-1.3-0.4-2.1-1.7-2-3l-3.4-1.1l-2.9,8.2l3.6,1.2c0.7-1.1,2.1-1.7,3.4-1.2c1.5,0.5,2.4,2.2,1.9,3.7
			c-0.5,1.5-2.2,2.4-3.7,1.9c-1.3-0.4-2.1-1.7-2-3l-4-1.3l-2.4,7.5l3.7,2.1c0.7-1.1,2.1-1.6,3.4-1.2c1.5,0.5,2.4,2.2,1.9,3.7
			c-0.5,1.5-2.2,2.4-3.7,1.9c-1.3-0.4-2.1-1.7-2-3l-4-1.3l-2,8.4l3.3,1.1c0.7-1.1,2.1-1.7,3.4-1.2c1.5,0.5,2.4,2.2,1.9,3.7
			c-0.5,1.5-2.2,2.4-3.7,1.9c-1.3-0.4-2.1-1.7-2-3l-4.2-0.5l-2.4,7.4l4,1.3c0.7-1.1,2.1-1.7,3.4-1.2c1.5,0.5,2.4,2.2,1.9,3.7
			c-0.5,1.5-2.2,2.4-3.7,1.9c-1.3-0.4-2.1-1.7-2-3l-4.1-0.9l-2.2,6.6l8.1,2.7l47,13.7l51,14c4.5,1.5,7.6-0.6,9.1-5L183,64.3
			C184.5,59.8,182.1,55.1,177.6,53.7z"/>
		<path class="st9" d="M178.1,53.5l-47.7-15.7L82.6,22.1l-7.4-2.4l-2.9,6.7l4,1.3c0.7-1.1,2.1-1.6,3.4-1.2c1.5,0.5,2.4,2.2,1.9,3.7
			c-0.5,1.5-2.2,2.4-3.7,1.9c-1.3-0.4-2.1-1.7-2-3l-3.4-1.1l-3.2,8l4.2,0.7c0.6-0.6,1.8-1.1,3.1-0.6c1.5,0.5,2.4,2.2,1.9,3.7
			c-0.5,1.5-2.2,2.4-3.7,1.9c-1.3-0.4-2.1-1.7-2-3l-4-1.3l-2.5,7.7l3.8,1.9c0.7-1.1,2.1-1.7,3.4-1.2c1.5,0.5,2.4,2.2,1.9,3.7
			c-0.5,1.5-2.2,2.4-3.7,1.9c-1.3-0.4-2.1-1.7-2-3l-3.8-1.9L62.8,55l4,1.3c0.7-1.1,2.1-1.6,3.4-1.2c1.5,0.5,2.4,2.2,1.9,3.7
			c-0.5,1.5-2.2,2.4-3.7,1.9c-1.3-0.4-2.1-1.7-2-3l-4.2-0.6l-2.5,7.5l4,1.3c0.7-1.1,2.1-1.7,3.4-1.2c1.5,0.5,2.4,2.2,1.9,3.7
			c-0.5,1.5-2.2,2.4-3.7,1.9c-1.3-0.4-2.1-1.7-2-3l-4-1.3l-2.5,7.6l3.8,1.9c0.7-1.1,2.1-1.6,3.4-1.2c1.5,0.5,2.4,2.2,1.9,3.7
			c-0.5,1.5-2.2,2.4-3.7,1.9c-1.3-0.4-2.2-1.3-2.1-2.6l-3.8-1.7l-2.7,8.2l4,1.3c0.7-1.1,2.1-1.6,3.4-1.2c1.5,0.5,2.4,2.2,1.9,3.7
			c-0.5,1.5-2.2,2.4-3.7,1.9c-1.3-0.4-2.1-1.7-2-3l-4.1-0.8l-2.4,7.3l3.8,1.8c0.7-1.1,2.1-1.7,3.4-1.2c1.5,0.5,2.4,2.2,1.9,3.7
			c-0.5,1.5-2.2,2.4-3.7,1.9c-1.3-0.4-2.1-1.7-2-3l-4-1.3l-2.8,8.6l4.1,0.9c0.7-1.1,2.1-1.6,3.4-1.2c1.5,0.5,2.4,2.2,1.9,3.7
			c-0.5,1.5-2.2,2.4-3.7,1.9c-1.3-0.4-2.1-1.7-2-3l-4.2-0.5l-2.4,7.4l4,1.3c0.7-1.1,2.1-1.7,3.4-1.2c1.5,0.5,2.4,2.2,1.9,3.7
			c-0.5,1.5-2.2,2.4-3.7,1.9c-1.3-0.4-2.1-1.7-2-3l-4-1.3l-2.5,7.5l3.7,2c0.7-1.1,2.1-1.7,3.4-1.2c1.5,0.5,2.4,2.2,1.9,3.7
			c-0.5,1.5-2.2,2.4-3.7,1.9c-1.3-0.4-2.1-1.7-2-3l-3.3-1.1l-3.2,7.4l3.8,1.9c0.7-1.1,2.1-1.6,3.4-1.2c1.5,0.5,2.4,2.2,1.9,3.7
			c-0.5,1.5-2.2,2.4-3.7,1.9c-1.3-0.4-2.1-1.7-2-3l-3.4-1.1l-2.9,8.2l3.6,1.2c0.7-1.1,2.1-1.7,3.4-1.2c1.5,0.5,2.4,2.2,1.9,3.7
			c-0.5,1.5-2.2,2.4-3.7,1.9c-1.3-0.4-2.1-1.7-2-3l-4-1.3l-2.4,7.5l3.7,2.1c0.7-1.1,2.1-1.6,3.4-1.2c1.5,0.5,2.4,2.2,1.9,3.7
			c-0.5,1.5-2.2,2.4-3.7,1.9c-1.3-0.4-2.1-1.7-2-3l-4-1.3l-2,8.4l3.3,1.1c0.7-1.1,2.1-1.7,3.4-1.2c1.5,0.5,2.4,2.2,1.9,3.7
			c-0.5,1.5-2.2,2.4-3.7,1.9c-1.3-0.4-2.1-1.7-2-3l-4.2-0.5l-2.4,7.4l4,1.3c0.7-1.1,2.1-1.7,3.4-1.2c1.5,0.5,2.4,2.2,1.9,3.7
			c-0.5,1.5-2.2,2.4-3.7,1.9c-1.3-0.4-2.1-1.7-2-3l-4.1-0.9l-2.2,6.6l8.1,2.7l47.1,13.7l50.9,14c4.5,1.5,7.7-0.6,9.2-5.1l45.8-139.4
			C184.9,59.6,182.5,55,178.1,53.5z"/>
		<path class="st10" d="M178.5,53.3l-47.7-15.7L83,22l-7.4-2.4l-2.9,6.7l4,1.3c0.7-1.1,2.1-1.6,3.4-1.2c1.5,0.5,2.4,2.2,1.9,3.7
			c-0.5,1.5-2.2,2.4-3.7,1.9c-1.3-0.4-2.1-1.7-2-3l-3.4-1.1l-3.2,8l4.2,0.7c0.6-0.6,1.8-1.1,3.1-0.6c1.5,0.5,2.4,2.2,1.9,3.7
			c-0.5,1.5-2.2,2.4-3.7,1.9c-1.3-0.4-2.1-1.7-2-3l-4-1.3l-2.5,7.7l3.8,1.9c0.7-1.1,2.1-1.7,3.4-1.2c1.5,0.5,2.4,2.2,1.9,3.7
			c-0.5,1.5-2.2,2.4-3.7,1.9c-1.3-0.4-2.1-1.7-2-3L66.1,46l-2.9,8.8l4,1.3c0.7-1.1,2.1-1.6,3.4-1.2c1.5,0.5,2.4,2.2,1.9,3.7
			c-0.5,1.5-2.2,2.4-3.7,1.9c-1.3-0.4-2.1-1.7-2-3l-4.2-0.6l-2.5,7.5l4,1.3c0.7-1.1,2.1-1.7,3.4-1.2c1.5,0.5,2.4,2.2,1.9,3.7
			c-0.5,1.5-2.2,2.4-3.7,1.9c-1.3-0.4-2.1-1.7-2-3l-4-1.3l-2.5,7.6l3.8,1.9c0.7-1.1,2.1-1.6,3.4-1.2c1.5,0.5,2.4,2.2,1.9,3.7
			c-0.5,1.5-2.2,2.4-3.7,1.9c-1.3-0.4-2.2-1.3-2.1-2.6l-3.8-1.7l-2.7,8.2l4,1.3c0.7-1.1,2.1-1.6,3.4-1.2c1.5,0.5,2.4,2.2,1.9,3.7
			c-0.5,1.5-2.2,2.4-3.7,1.9c-1.3-0.4-2.1-1.7-2-3l-4.1-0.8l-2.4,7.3l3.8,1.8c0.7-1.1,2.1-1.7,3.4-1.2c1.5,0.5,2.4,2.2,1.9,3.7
			c-0.5,1.5-2.2,2.4-3.7,1.9c-1.3-0.4-2.1-1.7-2-3l-4-1.3l-2.8,8.6l4.1,0.9c0.7-1.1,2.1-1.6,3.4-1.2c1.5,0.5,2.4,2.2,1.9,3.7
			c-0.5,1.5-2.2,2.4-3.7,1.9c-1.3-0.4-2.1-1.7-2-3l-4.2-0.5l-2.4,7.4l4,1.3c0.7-1.1,2.1-1.7,3.4-1.2c1.5,0.5,2.4,2.2,1.9,3.7
			c-0.5,1.5-2.2,2.4-3.7,1.9c-1.3-0.4-2.1-1.7-2-3l-4-1.3l-2.5,7.5l3.7,2c0.7-1.1,2.1-1.7,3.4-1.2c1.5,0.5,2.4,2.2,1.9,3.7
			c-0.5,1.5-2.2,2.4-3.7,1.9c-1.3-0.4-2.1-1.7-2-3l-3.3-1.1l-3.2,7.4l3.8,1.9c0.7-1.1,2.1-1.6,3.4-1.2c1.5,0.5,2.4,2.2,1.9,3.7
			c-0.5,1.5-2.2,2.4-3.7,1.9c-1.3-0.4-2.1-1.7-2-3l-3.4-1.1l-2.9,8.2l3.6,1.2c0.7-1.1,2.1-1.7,3.4-1.2c1.5,0.5,2.4,2.2,1.9,3.7
			c-0.5,1.5-2.2,2.4-3.7,1.9c-1.3-0.4-2.1-1.7-2-3l-4-1.3l-2.4,7.5l3.7,2.1c0.7-1.1,2.1-1.6,3.4-1.2c1.5,0.5,2.4,2.2,1.9,3.7
			c-0.5,1.5-2.2,2.4-3.7,1.9c-1.3-0.4-2.1-1.7-2-3l-4-1.3l-2,8.4l3.3,1.1c0.7-1.1,2.1-1.7,3.4-1.2c1.5,0.5,2.4,2.2,1.9,3.7
			c-0.5,1.5-2.2,2.4-3.7,1.9c-1.3-0.4-2.1-1.7-2-3l-4.2-0.5l-2.4,7.4l4,1.3c0.7-1.1,2.1-1.7,3.4-1.2c1.5,0.5,2.4,2.2,1.9,3.7
			c-0.5,1.5-2.2,2.4-3.7,1.9c-1.3-0.4-2.1-1.7-2-3l-4.1-0.9l-2.2,6.6l8.1,2.7L78,194.4l50.7,14.1c4.5,1.5,7.8-0.6,9.2-5.1
			l45.8-139.6C185.3,59.4,182.9,54.8,178.5,53.3z"/>
		<path class="st11" d="M178.9,53.1l-47.7-15.7L83.4,21.8L76,19.3L73.1,26l4,1.3c0.7-1.1,2.1-1.6,3.4-1.2c1.5,0.5,2.4,2.2,1.9,3.7
			c-0.5,1.5-2.2,2.4-3.7,1.9c-1.3-0.4-2.1-1.7-2-3l-3.4-1.1l-3.2,8l4.2,0.7c0.6-0.6,1.8-1.1,3.1-0.6c1.5,0.5,2.4,2.2,1.9,3.7
			c-0.5,1.5-2.2,2.4-3.7,1.9c-1.3-0.4-2.1-1.7-2-3l-4-1.3L67,44.6l3.8,1.9c0.7-1.1,2.1-1.7,3.4-1.2c1.5,0.5,2.4,2.2,1.9,3.7
			c-0.5,1.5-2.2,2.4-3.7,1.9c-1.3-0.4-2.1-1.7-2-3l-3.8-1.9l-2.9,8.8l4,1.3c0.7-1.1,2.1-1.6,3.4-1.2c1.5,0.5,2.4,2.2,1.9,3.7
			c-0.5,1.5-2.2,2.4-3.7,1.9c-1.3-0.4-2.1-1.7-2-3L63,56.7l-2.5,7.5l4,1.3c0.7-1.1,2.1-1.7,3.4-1.2c1.5,0.5,2.4,2.2,1.9,3.7
			c-0.5,1.5-2.2,2.4-3.7,1.9c-1.3-0.4-2.1-1.7-2-3l-4-1.3l-2.5,7.6l3.8,1.9c0.7-1.1,2.1-1.6,3.4-1.2c1.5,0.5,2.4,2.2,1.9,3.7
			c-0.5,1.5-2.2,2.4-3.7,1.9c-1.3-0.4-2.2-1.3-2.1-2.6l-3.8-1.7l-2.7,8.2l4,1.3c0.7-1.1,2.1-1.6,3.4-1.2c1.5,0.5,2.4,2.2,1.9,3.7
			c-0.5,1.5-2.2,2.4-3.7,1.9c-1.3-0.4-2.1-1.7-2-3l-4.1-0.8l-2.4,7.3l3.8,1.8c0.7-1.1,2.1-1.7,3.4-1.2c1.5,0.5,2.4,2.2,1.9,3.7
			c-0.5,1.5-2.2,2.4-3.7,1.9c-1.3-0.4-2.1-1.7-2-3l-4-1.3l-2.8,8.6l4.1,0.9c0.7-1.1,2.1-1.6,3.4-1.2c1.5,0.5,2.4,2.2,1.9,3.7
			c-0.5,1.5-2.2,2.4-3.7,1.9c-1.3-0.4-2.1-1.7-2-3l-4.2-0.5l-2.4,7.4l4,1.3c0.7-1.1,2.1-1.7,3.4-1.2c1.5,0.5,2.4,2.2,1.9,3.7
			c-0.5,1.5-2.2,2.4-3.7,1.9c-1.3-0.4-2.1-1.7-2-3l-4-1.3l-2.5,7.5l3.7,2c0.7-1.1,2.1-1.7,3.4-1.2c1.5,0.5,2.4,2.2,1.9,3.7
			c-0.5,1.5-2.2,2.4-3.7,1.9c-1.3-0.4-2.1-1.7-2-3l-3.3-1.1l-3.2,7.4l3.8,1.9c0.7-1.1,2.1-1.6,3.4-1.2c1.5,0.5,2.4,2.2,1.9,3.7
			c-0.5,1.5-2.2,2.4-3.7,1.9c-1.3-0.4-2.1-1.7-2-3l-3.4-1.1l-2.9,8.2l3.6,1.2c0.7-1.1,2.1-1.7,3.4-1.2c1.5,0.5,2.4,2.2,1.9,3.7
			c-0.5,1.5-2.2,2.4-3.7,1.9c-1.3-0.4-2.1-1.7-2-3l-4-1.3l-2.4,7.5l3.7,2.1c0.7-1.1,2.1-1.6,3.4-1.2c1.5,0.5,2.4,2.2,1.9,3.7
			c-0.5,1.5-2.2,2.4-3.7,1.9c-1.3-0.4-2.1-1.7-2-3l-4-1.3l-2,8.4l3.3,1.1c0.7-1.1,2.1-1.7,3.4-1.2c1.5,0.5,2.4,2.2,1.9,3.7
			c-0.5,1.5-2.2,2.4-3.7,1.9c-1.3-0.4-2.1-1.7-2-3l-4.2-0.5l-2.4,7.4l4,1.3c0.7-1.1,2.1-1.7,3.4-1.2c1.5,0.5,2.4,2.2,1.9,3.7
			c-0.5,1.5-2.2,2.4-3.7,1.9c-1.3-0.4-2.1-1.7-2-3l-4.1-0.9l-2.2,6.6l8.1,2.7l47.1,13.9l50.5,14.2c4.5,1.5,7.8-0.6,9.3-5.1
			l45.9-139.7C185.6,59.2,183.3,54.6,178.9,53.1z"/>
		<path class="st12" d="M179.3,53l-47.7-15.7L83.8,21.6l-7.4-2.4l-2.9,6.6l4,1.3c0.7-1.1,2.1-1.6,3.4-1.2c1.5,0.5,2.4,2.2,1.9,3.7
			c-0.5,1.5-2.2,2.4-3.7,1.9c-1.3-0.4-2.1-1.7-2-3l-3.4-1.1l-3.2,8l4.2,0.7c0.6-0.6,1.8-1.1,3.1-0.6c1.5,0.5,2.4,2.2,1.9,3.7
			c-0.5,1.5-2.2,2.4-3.7,1.9c-1.3-0.4-2.1-1.7-2-3l-4-1.3l-2.5,7.7l3.8,1.9c0.7-1.1,2.1-1.7,3.4-1.2c1.5,0.5,2.4,2.2,1.9,3.7
			c-0.5,1.5-2.2,2.4-3.7,1.9c-1.3-0.4-2.1-1.7-2-3l-3.8-1.9L64,54.5l4,1.3c0.7-1.1,2.1-1.6,3.4-1.2c1.5,0.5,2.4,2.2,1.9,3.7
			c-0.5,1.5-2.2,2.4-3.7,1.9c-1.3-0.4-2.1-1.7-2-3l-4.2-0.6L60.9,64l4,1.3c0.7-1.1,2.1-1.7,3.4-1.2c1.5,0.5,2.4,2.2,1.9,3.7
			c-0.5,1.5-2.2,2.4-3.7,1.9c-1.3-0.4-2.1-1.7-2-3l-4-1.3L58,73l3.8,1.9c0.7-1.1,2.1-1.6,3.4-1.2c1.5,0.5,2.4,2.2,1.9,3.7
			c-0.5,1.5-2.2,2.4-3.7,1.9c-1.3-0.4-2.2-1.3-2.1-2.6l-3.8-1.7l-2.7,8.2l4,1.3c0.7-1.1,2.1-1.6,3.4-1.2c1.5,0.5,2.4,2.2,1.9,3.7
			c-0.5,1.5-2.2,2.4-3.7,1.9c-1.3-0.4-2.1-1.7-2-3L54,84.9l-2.4,7.3l3.8,1.8c0.7-1.1,2.1-1.7,3.4-1.2c1.5,0.5,2.4,2.2,1.9,3.7
			c-0.5,1.5-2.2,2.4-3.7,1.9c-1.3-0.4-2.1-1.7-2-3L51,94l-2.8,8.6l4.1,0.9c0.7-1.1,2.1-1.6,3.4-1.2c1.5,0.5,2.4,2.2,1.9,3.7
			c-0.5,1.5-2.2,2.4-3.7,1.9c-1.3-0.4-2.1-1.7-2-3l-4.2-0.5l-2.4,7.4l4,1.3c0.7-1.1,2.1-1.7,3.4-1.2c1.5,0.5,2.4,2.2,1.9,3.7
			c-0.5,1.5-2.2,2.4-3.7,1.9c-1.3-0.4-2.1-1.7-2-3l-4-1.3l-2.5,7.5l3.7,2c0.7-1.1,2.1-1.7,3.4-1.2c1.5,0.5,2.4,2.2,1.9,3.7
			c-0.5,1.5-2.2,2.4-3.7,1.9c-1.3-0.4-2.1-1.7-2-3l-3.3-1.1l-3.2,7.4l3.8,1.9c0.7-1.1,2.1-1.6,3.4-1.2c1.5,0.5,2.4,2.2,1.9,3.7
			c-0.5,1.5-2.2,2.4-3.7,1.9c-1.3-0.4-2.1-1.7-2-3l-3.4-1.1l-2.9,8.2l3.6,1.2c0.7-1.1,2.1-1.7,3.4-1.2c1.5,0.5,2.4,2.2,1.9,3.7
			c-0.5,1.5-2.2,2.4-3.7,1.9c-1.3-0.4-2.1-1.7-2-3l-4-1.3l-2.4,7.5l3.7,2.1c0.7-1.1,2.1-1.6,3.4-1.2c1.5,0.5,2.4,2.2,1.9,3.7
			c-0.5,1.5-2.2,2.4-3.7,1.9c-1.3-0.4-2.1-1.7-2-3l-4-1.3l-2,8.4l3.3,1.1c0.7-1.1,2.1-1.7,3.4-1.2c1.5,0.5,2.4,2.2,1.9,3.7
			c-0.5,1.5-2.2,2.4-3.7,1.9c-1.3-0.4-2.1-1.7-2-3l-4.2-0.5l-2.4,7.4l4,1.3c0.7-1.1,2.1-1.7,3.4-1.2c1.5,0.5,2.4,2.2,1.9,3.7
			c-0.5,1.5-2.2,2.4-3.7,1.9c-1.3-0.4-2.1-1.7-2-3l-4.1-0.9l-2.2,6.6l8.1,2.7l47.2,14l50.4,14.2c4.5,1.5,7.9-0.6,9.4-5.1l45.9-139.9
			C186,59,183.7,54.4,179.3,53z"/>
		<path class="st13" d="M179.7,52.8l-47.7-15.7L84.2,21.4L76.8,19l-2.9,6.6l4,1.3c0.7-1.1,2.1-1.6,3.4-1.2c1.5,0.5,2.4,2.2,1.9,3.7
			c-0.5,1.5-2.2,2.4-3.7,1.9c-1.3-0.4-2.1-1.7-2-3L74,27.1l-3.2,8l4.2,0.7c0.6-0.6,1.8-1.1,3.1-0.6c1.5,0.5,2.4,2.2,1.9,3.7
			c-0.5,1.5-2.2,2.4-3.7,1.9c-1.3-0.4-2.1-1.7-2-3l-4-1.3l-2.5,7.7l3.8,1.8c0.7-1.1,2.1-1.7,3.4-1.2c1.5,0.5,2.4,2.2,1.9,3.7
			c-0.5,1.5-2.2,2.4-3.7,1.9c-1.3-0.4-2.1-1.7-2-3l-3.8-1.9l-2.9,8.8l4,1.3c0.7-1.1,2.1-1.6,3.4-1.2c1.5,0.5,2.4,2.2,1.9,3.7
			c-0.5,1.5-2.2,2.4-3.7,1.9c-1.3-0.4-2.1-1.7-2-3l-4.2-0.6l-2.5,7.5l4,1.3c0.7-1.1,2.1-1.7,3.4-1.2c1.5,0.5,2.4,2.2,1.9,3.7
			c-0.5,1.5-2.2,2.4-3.7,1.9c-1.3-0.4-2.1-1.7-2-3l-4-1.3l-2.5,7.6l3.8,1.9c0.7-1.1,2.1-1.6,3.4-1.2c1.5,0.5,2.4,2.2,1.9,3.7
			c-0.5,1.5-2.2,2.4-3.7,1.9c-1.3-0.4-2.2-1.3-2.1-2.6l-3.8-1.7L55,82.9l4,1.3c0.7-1.1,2.1-1.6,3.4-1.2c1.5,0.5,2.4,2.2,1.9,3.7
			c-0.5,1.5-2.2,2.4-3.7,1.9c-1.3-0.4-2.1-1.7-2-3l-4.1-0.8L52.1,92l3.8,1.8c0.7-1.1,2.1-1.7,3.4-1.2c1.5,0.5,2.4,2.2,1.9,3.7
			c-0.5,1.5-2.2,2.4-3.7,1.9c-1.3-0.4-2.1-1.7-2-3l-4-1.3l-2.8,8.6l4.1,0.9c0.7-1.1,2.1-1.6,3.4-1.2c1.5,0.5,2.4,2.2,1.9,3.7
			c-0.5,1.5-2.2,2.4-3.7,1.9c-1.3-0.4-2.1-1.7-2-3l-4.2-0.5l-2.4,7.4l4,1.3c0.7-1.1,2.1-1.7,3.4-1.2c1.5,0.5,2.4,2.2,1.9,3.7
			c-0.5,1.5-2.2,2.4-3.7,1.9c-1.3-0.4-2.1-1.7-2-3l-4-1.3l-2.5,7.5l3.7,2c0.7-1.1,2.1-1.7,3.4-1.2c1.5,0.5,2.4,2.2,1.9,3.7
			c-0.5,1.5-2.2,2.4-3.7,1.9c-1.3-0.4-2.1-1.7-2-3l-3.3-1.1l-3.2,7.4l3.8,1.9c0.7-1.1,2.1-1.6,3.4-1.2c1.5,0.5,2.4,2.2,1.9,3.7
			c-0.5,1.5-2.2,2.4-3.7,1.9c-1.3-0.4-2.1-1.7-2-3l-3.4-1.1l-2.9,8.2l3.6,1.2c0.7-1.1,2.1-1.7,3.4-1.2c1.5,0.5,2.4,2.2,1.9,3.7
			c-0.5,1.5-2.2,2.4-3.7,1.9c-1.3-0.4-2.1-1.7-2-3l-4-1.3l-2.4,7.5l3.7,2.1c0.7-1.1,2.1-1.6,3.4-1.2c1.5,0.5,2.4,2.2,1.9,3.7
			c-0.5,1.5-2.2,2.4-3.7,1.9c-1.3-0.4-2.1-1.7-2-3l-4-1.3l-2,8.4l3.3,1.1c0.7-1.1,2.1-1.7,3.4-1.2c1.5,0.5,2.4,2.2,1.9,3.7
			c-0.5,1.5-2.2,2.4-3.7,1.9c-1.3-0.4-2.1-1.7-2-3l-4.2-0.5l-2.4,7.4l4,1.3c0.7-1.1,2.1-1.7,3.4-1.2c1.5,0.5,2.4,2.2,1.9,3.7
			c-0.5,1.5-2.2,2.4-3.7,1.9c-1.3-0.4-2.1-1.7-2-3l-4.1-0.9l-2.2,6.6l8.1,2.7l47.2,14.1l50.2,14.3c4.5,1.5,8-0.6,9.4-5.1l46-140
			C186.4,58.8,184.1,54.2,179.7,52.8z"/>
		<path class="st14" d="M180.1,52.6l-47.7-15.7L84.6,21.2l-7.4-2.4l-2.9,6.6l4,1.3c0.7-1.1,2.1-1.6,3.4-1.2c1.5,0.5,2.4,2.2,1.9,3.7
			c-0.5,1.5-2.2,2.4-3.7,1.9c-1.3-0.4-2.1-1.7-2-3l-3.4-1.1l-3.2,8l4.2,0.7c0.6-0.6,1.8-1.1,3.1-0.6c1.5,0.5,2.4,2.2,1.9,3.7
			c-0.5,1.5-2.2,2.4-3.7,1.9c-1.3-0.4-2.1-1.7-2-3l-4-1.3L68.2,44l3.8,1.8c0.7-1.1,2.1-1.7,3.4-1.2c1.5,0.5,2.4,2.2,1.9,3.7
			c-0.5,1.5-2.2,2.4-3.7,1.9c-1.3-0.4-2.1-1.7-2-3l-3.8-1.9l-2.9,8.8l4,1.3c0.7-1.1,2.1-1.6,3.4-1.2c1.5,0.5,2.4,2.2,1.9,3.7
			c-0.5,1.5-2.2,2.4-3.7,1.9c-1.3-0.4-2.1-1.7-2-3l-4.2-0.6l-2.5,7.5l4,1.3c0.7-1.1,2.1-1.7,3.4-1.2c1.5,0.5,2.4,2.2,1.9,3.7
			c-0.5,1.5-2.2,2.4-3.7,1.9c-1.3-0.4-2.1-1.7-2-3l-4-1.3l-2.5,7.6l3.8,1.9c0.7-1.1,2.1-1.6,3.4-1.2c1.5,0.5,2.4,2.2,1.9,3.7
			c-0.5,1.5-2.2,2.4-3.7,1.9c-1.3-0.4-2.2-1.3-2.1-2.6l-3.8-1.7l-2.7,8.2l4,1.3c0.7-1.1,2.1-1.6,3.4-1.2c1.5,0.5,2.4,2.2,1.9,3.7
			c-0.5,1.5-2.2,2.4-3.7,1.9c-1.3-0.4-2.1-1.7-2-3l-4.1-0.8l-2.4,7.3l3.8,1.8c0.7-1.1,2.1-1.7,3.4-1.2c1.5,0.5,2.4,2.2,1.9,3.7
			c-0.5,1.5-2.2,2.4-3.7,1.9c-1.3-0.4-2.1-1.7-2-3l-4-1.3l-2.8,8.6l4.1,0.9c0.7-1.1,2.1-1.6,3.4-1.2c1.5,0.5,2.4,2.2,1.9,3.7
			c-0.5,1.5-2.2,2.4-3.7,1.9c-1.3-0.4-2.1-1.7-2-3l-4.2-0.5l-2.4,7.4l4,1.3c0.7-1.1,2.1-1.7,3.4-1.2c1.5,0.5,2.4,2.2,1.9,3.7
			c-0.5,1.5-2.2,2.4-3.7,1.9c-1.3-0.4-2.1-1.7-2-3l-4-1.3l-2.5,7.5l3.7,2c0.7-1.1,2.1-1.6,3.4-1.2c1.5,0.5,2.4,2.2,1.9,3.7
			c-0.5,1.5-2.2,2.4-3.7,1.9c-1.3-0.4-2.1-1.7-2-3l-3.3-1.1l-3.2,7.4l3.8,1.9c0.7-1.1,2.1-1.6,3.4-1.2c1.5,0.5,2.4,2.2,1.9,3.7
			c-0.5,1.5-2.2,2.4-3.7,1.9c-1.3-0.4-2.1-1.7-2-3l-3.4-1.1l-2.9,8.2l3.6,1.2c0.7-1.1,2.1-1.7,3.4-1.2c1.5,0.5,2.4,2.2,1.9,3.7
			c-0.5,1.5-2.2,2.4-3.7,1.9c-1.3-0.4-2.1-1.7-2-3l-4-1.3l-2.4,7.5l3.7,2.1c0.7-1.1,2.1-1.6,3.4-1.2c1.5,0.5,2.4,2.2,1.9,3.7
			c-0.5,1.5-2.2,2.4-3.7,1.9c-1.3-0.4-2.1-1.7-2-3l-4-1.3l-2,8.4l3.3,1.1c0.7-1.1,2.1-1.7,3.4-1.2c1.5,0.5,2.4,2.2,1.9,3.7
			c-0.5,1.5-2.2,2.4-3.7,1.9c-1.3-0.4-2.1-1.7-2-3l-4.2-0.5l-2.4,7.4l4,1.3c0.7-1.1,2.1-1.6,3.4-1.2c1.5,0.5,2.4,2.2,1.9,3.7
			c-0.5,1.5-2.2,2.4-3.7,1.9c-1.3-0.4-2.1-1.7-2-3l-4.1-0.9l-2.2,6.6l8.1,2.7L79.8,194l50.1,14.4c4.5,1.5,8-0.7,9.5-5.1l46-140.2
			C186.8,58.6,184.6,54.1,180.1,52.6z"/>
		<path class="st15" d="M180.5,52.4l-47.7-15.7L85,21.1l-7.4-2.4l-2.9,6.6l4,1.3c0.7-1.1,2.1-1.6,3.4-1.2c1.5,0.5,2.4,2.2,1.9,3.7
			c-0.5,1.5-2.2,2.4-3.7,1.9c-1.3-0.4-2.1-1.7-2-3l-3.4-1.1l-3.2,8l4.2,0.7c0.6-0.6,1.8-1.1,3.1-0.6c1.5,0.5,2.4,2.2,1.9,3.7
			c-0.5,1.5-2.2,2.4-3.7,1.9c-1.3-0.4-2.1-1.7-2-3l-4-1.3l-2.5,7.7l3.8,1.8c0.7-1.1,2.1-1.6,3.4-1.2c1.5,0.5,2.4,2.2,1.9,3.7
			c-0.5,1.5-2.2,2.4-3.7,1.9c-1.3-0.4-2.1-1.7-2-3L68.2,45l-2.9,8.8l4,1.3c0.7-1.1,2.1-1.6,3.4-1.2c1.5,0.5,2.4,2.2,1.9,3.7
			c-0.5,1.5-2.2,2.4-3.7,1.9c-1.3-0.4-2.1-1.7-2-3l-4.2-0.6l-2.5,7.5l4,1.3c0.7-1.1,2.1-1.7,3.4-1.2c1.5,0.5,2.4,2.2,1.9,3.7
			c-0.5,1.5-2.2,2.4-3.7,1.9c-1.3-0.4-2.1-1.7-2-3l-4-1.3l-2.5,7.6l3.8,1.9c0.7-1.1,2.1-1.6,3.4-1.2c1.5,0.5,2.4,2.2,1.9,3.7
			c-0.5,1.5-2.2,2.4-3.7,1.9c-1.3-0.4-2.2-1.3-2.1-2.6l-3.8-1.7l-2.7,8.2l4,1.3c0.7-1.1,2.1-1.6,3.4-1.2c1.5,0.5,2.4,2.2,1.9,3.7
			c-0.5,1.5-2.2,2.4-3.7,1.9c-1.3-0.4-2.1-1.7-2-3l-4.1-0.8l-2.4,7.3l3.8,1.8c0.7-1.1,2.1-1.6,3.4-1.2c1.5,0.5,2.4,2.2,1.9,3.7
			c-0.5,1.5-2.2,2.4-3.7,1.9c-1.3-0.4-2.1-1.7-2-3l-4-1.3l-2.8,8.6l4.1,0.9c0.7-1.1,2.1-1.6,3.4-1.2c1.5,0.5,2.4,2.2,1.9,3.7
			c-0.5,1.5-2.2,2.4-3.7,1.9c-1.3-0.4-2.1-1.7-2-3l-4.2-0.5l-2.4,7.4l4,1.3c0.7-1.1,2.1-1.7,3.4-1.2c1.5,0.5,2.4,2.2,1.9,3.7
			c-0.5,1.5-2.2,2.4-3.7,1.9c-1.3-0.4-2.1-1.7-2-3l-4-1.3l-2.5,7.5l3.7,2c0.7-1.1,2.1-1.6,3.4-1.2c1.5,0.5,2.4,2.2,1.9,3.7
			c-0.5,1.5-2.2,2.4-3.7,1.9c-1.3-0.4-2.1-1.7-2-3l-3.3-1.1l-3.2,7.4l3.8,1.9c0.7-1.1,2.1-1.6,3.4-1.2c1.5,0.5,2.4,2.2,1.9,3.7
			c-0.5,1.5-2.2,2.4-3.7,1.9c-1.3-0.4-2.1-1.7-2-3l-3.4-1.1l-2.9,8.2l3.6,1.2c0.7-1.1,2.1-1.6,3.4-1.2c1.5,0.5,2.4,2.2,1.9,3.7
			c-0.5,1.5-2.2,2.4-3.7,1.9c-1.3-0.4-2.1-1.7-2-3l-4-1.3l-2.4,7.4l3.7,2.1c0.7-1.1,2.1-1.6,3.4-1.2c1.5,0.5,2.4,2.2,1.9,3.7
			c-0.5,1.5-2.2,2.4-3.7,1.9c-1.3-0.4-2.1-1.7-2-3l-4-1.3l-2,8.4l3.3,1.1c0.7-1.1,2.1-1.7,3.4-1.2c1.5,0.5,2.4,2.2,1.9,3.7
			c-0.5,1.5-2.2,2.4-3.7,1.9c-1.3-0.4-2.1-1.7-2-3l-4.2-0.5l-2.4,7.4l4,1.3c0.7-1.1,2.1-1.6,3.4-1.2c1.5,0.5,2.4,2.2,1.9,3.7
			c-0.5,1.5-2.2,2.4-3.7,1.9c-1.3-0.4-2.1-1.7-2-3l-4.1-0.9l-2.2,6.6l8.1,2.7l47.3,14.3l49.9,14.4c4.5,1.5,8.1-0.7,9.6-5.2
			l46.1-140.3C187.2,58.4,185,53.9,180.5,52.4z"/>
		<path class="st16" d="M180.9,52.2l-47.7-15.7L85.4,20.9L78,18.4L75.1,25l4,1.3c0.7-1.1,2.1-1.6,3.4-1.2c1.5,0.5,2.4,2.2,1.9,3.7
			c-0.5,1.5-2.2,2.4-3.7,1.9c-1.3-0.4-2.1-1.7-2-3l-3.4-1.1l-3.2,8l4.2,0.7c0.6-0.6,1.8-1.1,3.1-0.6c1.5,0.5,2.4,2.2,1.9,3.7
			c-0.5,1.5-2.2,2.4-3.7,1.9c-1.3-0.4-2.1-1.7-2-3l-4-1.3L69,43.6l3.8,1.8c0.7-1.1,2.1-1.6,3.4-1.2c1.5,0.5,2.4,2.2,1.9,3.7
			c-0.5,1.5-2.2,2.4-3.7,1.9c-1.3-0.4-2.1-1.7-2-3l-3.8-1.9l-2.9,8.8l4,1.3c0.7-1.1,2.1-1.6,3.4-1.2c1.5,0.5,2.4,2.2,1.9,3.7
			c-0.5,1.5-2.2,2.4-3.7,1.9c-1.3-0.4-2.1-1.7-2-3L65,55.7l-2.5,7.5l4,1.3c0.7-1.1,2.1-1.7,3.4-1.2c1.5,0.5,2.4,2.2,1.9,3.7
			c-0.5,1.5-2.2,2.4-3.7,1.9c-1.3-0.4-2.1-1.7-2-3l-4-1.3l-2.5,7.6l3.8,1.9c0.7-1.1,2.1-1.6,3.4-1.2c1.5,0.5,2.4,2.2,1.9,3.7
			c-0.5,1.5-2.2,2.4-3.7,1.9c-1.3-0.4-2.2-1.3-2.1-2.6L59,74.1l-2.7,8.2l4,1.3c0.7-1.1,2.1-1.6,3.4-1.2c1.5,0.5,2.4,2.2,1.9,3.7
			c-0.5,1.5-2.2,2.4-3.7,1.9c-1.3-0.4-2.1-1.7-2-3l-4.1-0.8l-2.4,7.3l3.8,1.8c0.7-1.1,2.1-1.6,3.4-1.2c1.5,0.5,2.4,2.2,1.9,3.7
			c-0.5,1.5-2.2,2.4-3.7,1.9c-1.3-0.4-2.1-1.7-2-3l-4-1.3l-2.8,8.6l4.1,0.9c0.7-1.1,2.1-1.6,3.4-1.2c1.5,0.5,2.4,2.2,1.9,3.7
			c-0.5,1.5-2.2,2.4-3.7,1.9c-1.3-0.4-2.1-1.7-2-3l-4.2-0.5l-2.4,7.4l4,1.3c0.7-1.1,2.1-1.7,3.4-1.2c1.5,0.5,2.4,2.2,1.9,3.7
			c-0.5,1.5-2.2,2.4-3.7,1.9c-1.3-0.4-2.1-1.7-2-3l-4-1.3l-2.5,7.5l3.7,2c0.7-1.1,2.1-1.6,3.4-1.2c1.5,0.5,2.4,2.2,1.9,3.7
			c-0.5,1.5-2.2,2.4-3.7,1.9c-1.3-0.4-2.1-1.7-2-3l-3.3-1.1l-3.2,7.4l3.8,1.9c0.7-1.1,2.1-1.6,3.4-1.2c1.5,0.5,2.4,2.2,1.9,3.7
			c-0.5,1.5-2.2,2.4-3.7,1.9c-1.3-0.4-2.1-1.7-2-3l-3.4-1.1l-2.9,8.2l3.6,1.2c0.7-1.1,2.1-1.6,3.4-1.2c1.5,0.5,2.4,2.2,1.9,3.7
			c-0.5,1.5-2.2,2.4-3.7,1.9c-1.3-0.4-2.1-1.7-2-3l-4-1.3l-2.4,7.4l3.7,2.1c0.7-1.1,2.1-1.6,3.4-1.2c1.5,0.5,2.4,2.2,1.9,3.7
			c-0.5,1.5-2.2,2.4-3.7,1.9c-1.3-0.4-2.1-1.7-2-3l-4-1.3l-2,8.4l3.3,1.1c0.7-1.1,2.1-1.7,3.4-1.2c1.5,0.5,2.4,2.2,1.9,3.7
			c-0.5,1.5-2.2,2.4-3.7,1.9c-1.3-0.4-2.1-1.7-2-3l-4.2-0.5l-2.4,7.4l4,1.3c0.7-1.1,2.1-1.6,3.4-1.2c1.5,0.5,2.4,2.2,1.9,3.7
			c-0.5,1.5-2.2,2.4-3.7,1.9c-1.3-0.4-2.1-1.7-2-3l-4.1-0.9l-2.2,6.6l8.1,2.7l47.3,14.4l49.7,14.5c4.5,1.5,8.2-0.7,9.7-5.2
			l46.1-140.4C187.6,58.2,185.4,53.7,180.9,52.2z"/>
		<path class="st17" d="M181.3,52l-47.7-15.7L85.8,20.7l-7.4-2.4l-2.9,6.5l4,1.3c0.7-1.1,2.1-1.6,3.4-1.2c1.5,0.5,2.4,2.2,1.9,3.7
			c-0.5,1.5-2.2,2.4-3.7,1.9c-1.3-0.4-2.1-1.7-2-3l-3.4-1.1l-3.2,8l4.2,0.7c0.6-0.6,1.8-1.1,3.1-0.6c1.5,0.5,2.4,2.2,1.9,3.7
			c-0.5,1.5-2.2,2.4-3.7,1.9c-1.3-0.4-2.1-1.7-2-3l-4-1.3l-2.5,7.7l3.8,1.8c0.7-1.1,2.1-1.6,3.4-1.2c1.5,0.5,2.4,2.2,1.9,3.7
			c-0.5,1.5-2.2,2.4-3.7,1.9c-1.3-0.4-2.1-1.7-2-3L69,44.6l-2.9,8.8l4,1.3c0.7-1.1,2.1-1.6,3.4-1.2c1.5,0.5,2.4,2.2,1.9,3.7
			c-0.5,1.5-2.2,2.4-3.7,1.9c-1.3-0.4-2.1-1.7-2-3l-4.2-0.6L63,63l4,1.3c0.7-1.1,2.1-1.7,3.4-1.2c1.5,0.5,2.4,2.2,1.9,3.7
			c-0.5,1.5-2.2,2.4-3.7,1.9c-1.3-0.4-2.1-1.7-2-3l-4-1.3L60,72l3.8,1.9c0.7-1.1,2.1-1.6,3.4-1.2c1.5,0.5,2.4,2.2,1.9,3.7
			c-0.5,1.5-2.2,2.4-3.7,1.9c-1.3-0.4-2.2-1.3-2.1-2.6l-3.8-1.7l-2.7,8.2l4,1.3c0.7-1.1,2.1-1.6,3.4-1.2c1.5,0.5,2.4,2.2,1.9,3.7
			c-0.5,1.5-2.2,2.4-3.7,1.9c-1.3-0.4-2.1-1.7-2-3L56.1,84l-2.4,7.3l3.8,1.8c0.7-1.1,2.1-1.6,3.4-1.2c1.5,0.5,2.4,2.2,1.9,3.7
			c-0.5,1.5-2.2,2.4-3.7,1.9c-1.3-0.4-2.1-1.7-2-3l-4-1.3l-2.8,8.6l4.1,0.9c0.7-1.1,2.1-1.6,3.4-1.2c1.5,0.5,2.4,2.2,1.9,3.7
			c-0.5,1.5-2.2,2.4-3.7,1.9c-1.3-0.4-2.1-1.7-2-3l-4.2-0.5l-2.4,7.4l4,1.3c0.7-1.1,2.1-1.7,3.4-1.2c1.5,0.5,2.4,2.2,1.9,3.7
			c-0.5,1.5-2.2,2.4-3.7,1.9c-1.3-0.4-2.1-1.7-2-3l-4-1.3l-2.5,7.5l3.7,2c0.7-1.1,2.1-1.6,3.4-1.2c1.5,0.5,2.4,2.2,1.9,3.7
			c-0.5,1.5-2.2,2.4-3.7,1.9c-1.3-0.4-2.1-1.7-2-3l-3.3-1.1l-3.2,7.4l3.8,1.9c0.7-1.1,2.1-1.6,3.4-1.2c1.5,0.5,2.4,2.2,1.9,3.7
			c-0.5,1.5-2.2,2.4-3.7,1.9c-1.3-0.4-2.1-1.7-2-3l-3.4-1.1l-2.9,8.2l3.6,1.2c0.7-1.1,2.1-1.6,3.4-1.2c1.5,0.5,2.4,2.2,1.9,3.7
			c-0.5,1.5-2.2,2.4-3.7,1.9c-1.3-0.4-2.1-1.7-2-3l-4-1.3l-2.4,7.4l3.7,2.1c0.7-1.1,2.1-1.6,3.4-1.2c1.5,0.5,2.4,2.2,1.9,3.7
			c-0.5,1.5-2.2,2.4-3.7,1.9c-1.3-0.4-2.1-1.7-2-3l-4-1.3l-2,8.4l3.3,1.1c0.7-1.1,2.1-1.7,3.4-1.2c1.5,0.5,2.4,2.2,1.9,3.7
			c-0.5,1.5-2.2,2.4-3.7,1.9c-1.3-0.4-2.1-1.7-2-3l-4.2-0.5l-2.4,7.4l4,1.3c0.7-1.1,2.1-1.6,3.4-1.2c1.5,0.5,2.4,2.2,1.9,3.7
			c-0.5,1.5-2.2,2.4-3.7,1.9c-1.3-0.4-2.1-1.7-2-3l-4.1-0.9l-2.2,6.6l8.1,2.7l47.3,14.4l49.6,14.6c4.5,1.5,8.3-0.7,9.7-5.2
			l46.2-140.6C188,58,185.8,53.5,181.3,52z"/>
		<path class="st18" d="M181.7,51.9L134,36.2L86.2,20.5l-7.4-2.4l-2.9,6.5l4,1.3c0.7-1.1,2.1-1.6,3.4-1.2c1.5,0.5,2.4,2.2,1.9,3.7
			c-0.5,1.5-2.2,2.4-3.7,1.9c-1.3-0.4-2.1-1.7-2-3L76,26.1l-3.2,8l4.2,0.7c0.6-0.6,1.8-1.1,3.1-0.6c1.5,0.5,2.4,2.2,1.9,3.7
			c-0.5,1.5-2.2,2.4-3.7,1.9c-1.3-0.4-2.1-1.7-2-3l-4-1.3l-2.5,7.7l3.8,1.8c0.7-1.1,2.1-1.6,3.4-1.2c1.5,0.5,2.4,2.2,1.9,3.7
			c-0.5,1.5-2.2,2.4-3.7,1.9c-1.3-0.4-2.1-1.7-2-3l-3.8-1.9l-2.9,8.8l4,1.3c0.7-1.1,2.1-1.6,3.4-1.2c1.5,0.5,2.4,2.2,1.9,3.7
			c-0.5,1.5-2.2,2.4-3.7,1.9c-1.3-0.4-2.1-1.7-2-3l-4.2-0.6l-2.5,7.5l4,1.3c0.7-1.1,2.1-1.7,3.4-1.2c1.5,0.5,2.4,2.2,1.9,3.7
			c-0.5,1.5-2.2,2.4-3.7,1.9c-1.3-0.4-2.1-1.7-2-3l-4-1.3l-2.5,7.6l3.8,1.9c0.7-1.1,2.1-1.6,3.4-1.2c1.5,0.5,2.4,2.2,1.9,3.7
			c-0.5,1.5-2.2,2.4-3.7,1.9c-1.3-0.4-2.2-1.3-2.1-2.6l-3.8-1.7L57.1,82l4,1.3c0.7-1.1,2.1-1.7,3.4-1.2c1.5,0.5,2.4,2.2,1.9,3.7
			c-0.5,1.5-2.2,2.4-3.7,1.9c-1.3-0.4-2.1-1.7-2-3l-4.1-0.8L54.1,91l3.8,1.8c0.7-1.1,2.1-1.6,3.4-1.2c1.5,0.5,2.4,2.2,1.9,3.7
			c-0.5,1.5-2.2,2.4-3.7,1.9c-1.3-0.4-2.1-1.7-2-3l-4-1.3l-2.8,8.6l4.1,0.9c0.7-1.1,2.1-1.6,3.4-1.2c1.5,0.5,2.4,2.2,1.9,3.7
			c-0.5,1.5-2.2,2.4-3.7,1.9c-1.3-0.4-2.1-1.7-2-3l-4.2-0.5l-2.4,7.4l4,1.3c0.7-1.1,2.1-1.7,3.4-1.2c1.5,0.5,2.4,2.2,1.9,3.7
			c-0.5,1.5-2.2,2.4-3.7,1.9c-1.3-0.4-2.1-1.7-2-3l-4-1.3l-2.5,7.5l3.7,2c0.7-1.1,2.1-1.6,3.4-1.2c1.5,0.5,2.4,2.2,1.9,3.7
			c-0.5,1.5-2.2,2.4-3.7,1.9c-1.3-0.4-2.1-1.7-2-3l-3.3-1.1l-3.2,7.4l3.8,1.9c0.7-1.1,2.1-1.7,3.4-1.2c1.5,0.5,2.4,2.2,1.9,3.7
			c-0.5,1.5-2.2,2.4-3.7,1.9c-1.3-0.4-2.1-1.7-2-3l-3.4-1.1l-2.9,8.2l3.6,1.2c0.7-1.1,2.1-1.6,3.4-1.2c1.5,0.5,2.4,2.2,1.9,3.7
			c-0.5,1.5-2.2,2.4-3.7,1.9c-1.3-0.4-2.1-1.7-2-3l-4-1.3l-2.4,7.4l3.7,2.1c0.7-1.1,2.1-1.6,3.4-1.2c1.5,0.5,2.4,2.2,1.9,3.7
			c-0.5,1.5-2.2,2.4-3.7,1.9c-1.3-0.4-2.1-1.7-2-3l-4-1.3l-2,8.4l3.3,1.1c0.7-1.1,2.1-1.7,3.4-1.2c1.5,0.5,2.4,2.2,1.9,3.7
			c-0.5,1.5-2.2,2.4-3.7,1.9c-1.3-0.4-2.1-1.7-2-3l-4.2-0.5l-2.4,7.4l4,1.3c0.7-1.1,2.1-1.6,3.4-1.2c1.5,0.5,2.4,2.2,1.9,3.7
			c-0.5,1.5-2.2,2.4-3.7,1.9c-1.3-0.4-2.1-1.7-2-3l-4.1-0.9l-2.2,6.6l8.1,2.7l47.3,14.5l49.4,14.6c4.5,1.5,8.3-0.7,9.8-5.2
			l46.2-140.7C188.4,57.8,186.2,53.3,181.7,51.9z"/>
		<path class="st19" d="M182.1,51.7L134.4,36L86.6,20.3l-7.4-2.4l-2.9,6.5l4,1.3c0.7-1.1,2.1-1.6,3.4-1.2c1.5,0.5,2.4,2.2,1.9,3.7
			c-0.5,1.5-2.2,2.4-3.7,1.9c-1.3-0.4-2.1-1.7-2-3l-3.4-1.1l-3.2,8l4.2,0.7c0.6-0.6,1.8-1.1,3.1-0.6c1.5,0.5,2.4,2.2,1.9,3.7
			c-0.5,1.5-2.2,2.4-3.7,1.9c-1.3-0.4-2.1-1.7-2-3l-4-1.3L70.2,43l3.8,1.8c0.7-1.1,2.1-1.6,3.4-1.2c1.5,0.5,2.4,2.2,1.9,3.7
			c-0.5,1.5-2.2,2.4-3.7,1.9c-1.3-0.4-2.1-1.7-2-3l-3.8-1.9l-2.9,8.8l4,1.3c0.7-1.1,2.1-1.6,3.4-1.2c1.5,0.5,2.4,2.2,1.9,3.7
			c-0.5,1.5-2.2,2.4-3.7,1.9c-1.3-0.4-2.1-1.7-2-3l-4.2-0.6l-2.5,7.5l4,1.3c0.7-1.1,2.1-1.7,3.4-1.2c1.5,0.5,2.4,2.2,1.9,3.7
			c-0.5,1.5-2.2,2.4-3.7,1.9c-1.3-0.4-2.1-1.7-2-3l-4-1.3l-2.5,7.6l3.8,1.9c0.7-1.1,2.1-1.6,3.4-1.2c1.5,0.5,2.4,2.2,1.9,3.7
			c-0.5,1.5-2.2,2.4-3.7,1.9c-1.3-0.4-2.2-1.3-2.1-2.6l-3.8-1.7l-2.7,8.2l4,1.3c0.7-1.1,2.1-1.7,3.4-1.2c1.5,0.5,2.4,2.2,1.9,3.7
			c-0.5,1.5-2.2,2.4-3.7,1.9c-1.3-0.4-2.1-1.7-2-3l-4.1-0.8l-2.4,7.3l3.8,1.8c0.7-1.1,2.1-1.6,3.4-1.2c1.5,0.5,2.4,2.2,1.9,3.7
			c-0.5,1.5-2.2,2.4-3.7,1.9c-1.3-0.4-2.1-1.7-2-3l-4-1.3l-2.8,8.6l4.1,0.9c0.7-1.1,2.1-1.6,3.4-1.2c1.5,0.5,2.4,2.2,1.9,3.7
			c-0.5,1.5-2.2,2.4-3.7,1.9c-1.3-0.4-2.1-1.7-2-3l-4.2-0.5l-2.4,7.4l4,1.3c0.7-1.1,2.1-1.7,3.4-1.2c1.5,0.5,2.4,2.2,1.9,3.7
			c-0.5,1.5-2.2,2.4-3.7,1.9c-1.3-0.4-2.1-1.7-2-3l-4-1.3l-2.5,7.5l3.7,2c0.7-1.1,2.1-1.6,3.4-1.2c1.5,0.5,2.4,2.2,1.9,3.7
			c-0.5,1.5-2.2,2.4-3.7,1.9c-1.3-0.4-2.1-1.7-2-3l-3.3-1.1l-3.2,7.4l3.8,1.9c0.7-1.1,2.1-1.7,3.4-1.2c1.5,0.5,2.4,2.2,1.9,3.7
			c-0.5,1.5-2.2,2.4-3.7,1.9c-1.3-0.4-2.1-1.7-2-3l-3.4-1.1l-2.9,8.2l3.6,1.2c0.7-1.1,2.1-1.6,3.4-1.2c1.5,0.5,2.4,2.2,1.9,3.7
			c-0.5,1.5-2.2,2.4-3.7,1.9c-1.3-0.4-2.1-1.7-2-3l-4-1.3l-2.4,7.4l3.7,2.1c0.7-1.1,2.1-1.6,3.4-1.2c1.5,0.5,2.4,2.2,1.9,3.7
			c-0.5,1.5-2.2,2.4-3.7,1.9c-1.3-0.4-2.1-1.7-2-3l-4-1.3l-2,8.4l3.3,1.1c0.7-1.1,2.1-1.7,3.4-1.2c1.5,0.5,2.4,2.2,1.9,3.7
			c-0.5,1.5-2.2,2.4-3.7,1.9c-1.3-0.4-2.1-1.7-2-3l-4.2-0.5l-2.4,7.4l4,1.3c0.7-1.1,2.1-1.6,3.4-1.2c1.5,0.5,2.4,2.2,1.9,3.7
			c-0.5,1.5-2.2,2.4-3.7,1.9c-1.3-0.4-2.1-1.7-2-3l-4.1-0.9l-2.2,6.6l8.1,2.7L82,193.4l49.2,14.7c4.5,1.5,8.4-0.8,9.9-5.2L187.3,62
			C188.8,57.6,186.6,53.2,182.1,51.7z"/>
		<path class="st20" d="M182.5,51.5l-47.7-15.7L87.1,20.1l-7.4-2.4l-2.9,6.5l4,1.3c0.7-1.1,2.1-1.6,3.4-1.2c1.5,0.5,2.4,2.2,1.9,3.7
			c-0.5,1.5-2.2,2.4-3.7,1.9c-1.3-0.4-2.1-1.7-2-3l-3.4-1.1l-3.2,8l4.2,0.7c0.6-0.6,1.8-1.1,3.1-0.6c1.5,0.5,2.4,2.2,1.9,3.7
			c-0.5,1.5-2.2,2.4-3.7,1.9c-1.3-0.4-2.1-1.7-2-3l-4-1.3l-2.5,7.7l3.8,1.8c0.7-1.1,2.1-1.6,3.4-1.2c1.5,0.5,2.4,2.2,1.9,3.7
			c-0.5,1.5-2.2,2.4-3.7,1.9c-1.3-0.4-2.1-1.7-2-3L70.2,44l-2.9,8.8l4,1.3c0.7-1.1,2.1-1.6,3.4-1.2c1.5,0.5,2.4,2.2,1.9,3.7
			c-0.5,1.5-2.2,2.4-3.7,1.9c-1.3-0.4-2.1-1.7-2-3l-4.2-0.6l-2.5,7.5l4,1.3c0.7-1.1,2.1-1.7,3.4-1.2c1.5,0.5,2.4,2.2,1.9,3.7
			c-0.5,1.5-2.2,2.4-3.7,1.9c-1.3-0.4-2.1-1.7-2-3l-4-1.3l-2.5,7.6l3.8,1.9c0.7-1.1,2.1-1.6,3.4-1.2c1.5,0.5,2.4,2.2,1.9,3.7
			c-0.5,1.5-2.2,2.4-3.7,1.9c-1.3-0.4-2.2-1.3-2.1-2.6l-3.8-1.7l-2.7,8.2l4,1.3c0.7-1.1,2.1-1.7,3.4-1.2c1.5,0.5,2.4,2.2,1.9,3.7
			c-0.5,1.5-2.2,2.4-3.7,1.9c-1.3-0.4-2.1-1.7-2-3l-4.1-0.8l-2.4,7.3l3.8,1.8c0.7-1.1,2.1-1.6,3.4-1.2c1.5,0.5,2.4,2.2,1.9,3.7
			c-0.5,1.5-2.2,2.4-3.7,1.9c-1.3-0.4-2.1-1.7-2-3l-4-1.3l-2.8,8.6l4.1,0.9c0.7-1.1,2.1-1.6,3.4-1.2c1.5,0.5,2.4,2.2,1.9,3.7
			c-0.5,1.5-2.2,2.4-3.7,1.9c-1.3-0.4-2.1-1.7-2-3l-4.2-0.5l-2.4,7.4l4,1.3c0.7-1.1,2.1-1.7,3.4-1.2c1.5,0.5,2.4,2.2,1.9,3.7
			c-0.5,1.5-2.2,2.4-3.7,1.9c-1.3-0.4-2.1-1.7-2-3l-4-1.3l-2.5,7.5l3.7,2c0.7-1.1,2.1-1.6,3.4-1.2c1.5,0.5,2.4,2.2,1.9,3.7
			c-0.5,1.5-2.2,2.4-3.7,1.9c-1.3-0.4-2.1-1.7-2-3l-3.3-1.1l-3.2,7.4l3.8,1.9c0.7-1.1,2.1-1.7,3.4-1.2c1.5,0.5,2.4,2.2,1.9,3.7
			c-0.5,1.5-2.2,2.4-3.7,1.9c-1.3-0.4-2.1-1.7-2-3l-3.4-1.1l-2.9,8.2l3.6,1.2c0.7-1.1,2.1-1.6,3.4-1.2c1.5,0.5,2.4,2.2,1.9,3.7
			c-0.5,1.5-2.2,2.4-3.7,1.9c-1.3-0.4-2.1-1.7-2-3l-4-1.3l-2.4,7.4l3.7,2.1c0.7-1.1,2.1-1.6,3.4-1.2c1.5,0.5,2.4,2.2,1.9,3.7
			c-0.5,1.5-2.2,2.4-3.7,1.9c-1.3-0.4-2.1-1.7-2-3l-4-1.3l-2,8.4l3.3,1.1c0.7-1.1,2.1-1.7,3.4-1.2c1.5,0.5,2.4,2.2,1.9,3.7
			s-2.2,2.4-3.7,1.9c-1.3-0.4-2.1-1.7-2-3l-4.2-0.5l-2.4,7.4l4,1.3c0.7-1.1,2.1-1.6,3.4-1.2c1.5,0.5,2.4,2.2,1.9,3.7
			c-0.5,1.5-2.2,2.4-3.7,1.9c-1.3-0.4-2.1-1.7-2-3l-4.1-0.9l-2.2,6.6l8.1,2.7l47.4,14.7l49.1,14.8c4.5,1.5,8.5-0.8,10-5.2l46.3-141
			C189.2,57.4,187,53,182.5,51.5z"/>
		<path class="st21" d="M182.9,51.3l-47.7-15.7L87.5,20L80,17.5L77.2,24l4,1.3c0.7-1.1,2.1-1.6,3.4-1.2c1.5,0.5,2.4,2.2,1.9,3.7
			c-0.5,1.5-2.2,2.4-3.7,1.9c-1.3-0.4-2.1-1.7-2-3l-3.4-1.1l-3.2,8l4.2,0.7c0.6-0.6,1.8-1.1,3.1-0.6c1.5,0.5,2.4,2.2,1.9,3.7
			c-0.5,1.5-2.2,2.4-3.7,1.9c-1.3-0.4-2.1-1.7-2-3l-4-1.3l-2.5,7.7l3.8,1.8c0.7-1.1,2.1-1.6,3.4-1.2c1.5,0.5,2.4,2.2,1.9,3.7
			c-0.5,1.5-2.2,2.4-3.7,1.9c-1.3-0.4-2.1-1.7-2-3l-3.8-1.9l-2.9,8.8l4,1.3c0.7-1.1,2.1-1.6,3.4-1.2c1.5,0.5,2.4,2.2,1.9,3.7
			c-0.5,1.5-2.2,2.4-3.7,1.9c-1.3-0.4-2.1-1.7-2-3l-4.2-0.6l-2.5,7.5l4,1.3c0.7-1.1,2.1-1.7,3.4-1.2c1.5,0.5,2.4,2.2,1.9,3.7
			c-0.5,1.5-2.2,2.4-3.7,1.9c-1.3-0.4-2.1-1.7-2-3l-4-1.3l-2.5,7.6l3.8,1.9c0.7-1.1,2.1-1.6,3.4-1.2c1.5,0.5,2.4,2.2,1.9,3.7
			c-0.5,1.5-2.2,2.4-3.7,1.9c-1.3-0.4-2.2-1.3-2.1-2.6L61,73.1l-2.7,8.2l4,1.3c0.7-1.1,2.1-1.7,3.4-1.2c1.5,0.5,2.4,2.2,1.9,3.7
			c-0.5,1.5-2.2,2.4-3.7,1.9c-1.3-0.4-2.1-1.7-2-3l-4.1-0.8l-2.4,7.3l3.8,1.8c0.7-1.1,2.1-1.6,3.4-1.2c1.5,0.5,2.4,2.2,1.9,3.7
			c-0.5,1.5-2.2,2.4-3.7,1.9c-1.3-0.4-2.1-1.7-2-3l-4-1.3l-2.8,8.6l4.1,0.9c0.7-1.1,2.1-1.7,3.4-1.2c1.5,0.5,2.4,2.2,1.9,3.7
			c-0.5,1.5-2.2,2.4-3.7,1.9c-1.3-0.4-2.1-1.7-2-3l-4.2-0.5l-2.4,7.4l4,1.3c0.7-1.1,2.1-1.7,3.4-1.2c1.5,0.5,2.4,2.2,1.9,3.7
			c-0.5,1.5-2.2,2.4-3.7,1.9c-1.3-0.4-2.1-1.7-2-3l-4-1.3l-2.5,7.5l3.7,2c0.7-1.1,2.1-1.6,3.4-1.2c1.5,0.5,2.4,2.2,1.9,3.7
			c-0.5,1.5-2.2,2.4-3.7,1.9c-1.3-0.4-2.1-1.7-2-3l-3.3-1.1l-3.2,7.4l3.8,1.9c0.7-1.1,2.1-1.7,3.4-1.2c1.5,0.5,2.4,2.2,1.9,3.7
			c-0.5,1.5-2.2,2.4-3.7,1.9c-1.3-0.4-2.1-1.7-2-3l-3.4-1.1l-2.9,8.2l3.6,1.2c0.7-1.1,2.1-1.6,3.4-1.2c1.5,0.5,2.4,2.2,1.9,3.7
			c-0.5,1.5-2.2,2.4-3.7,1.9c-1.3-0.4-2.1-1.7-2-3l-4-1.3l-2.4,7.4l3.7,2.1c0.7-1.1,2.1-1.6,3.4-1.2c1.5,0.5,2.4,2.2,1.9,3.7
			c-0.5,1.5-2.2,2.4-3.7,1.9c-1.3-0.4-2.1-1.7-2-3l-4-1.3l-2,8.4l3.3,1.1c0.7-1.1,2.1-1.7,3.4-1.2c1.5,0.5,2.4,2.2,1.9,3.7
			c-0.5,1.5-2.2,2.4-3.7,1.9c-1.3-0.4-2.1-1.7-2-3l-4.2-0.5l-2.4,7.4l4,1.3c0.7-1.1,2.1-1.6,3.4-1.2c1.5,0.5,2.4,2.2,1.9,3.7
			c-0.5,1.5-2.2,2.4-3.7,1.9c-1.3-0.4-2.1-1.7-2-3l-4.1-0.9l-2.2,6.6l8.1,2.7l47.4,14.8l48.9,14.8c4.5,1.5,8.6-0.8,10-5.3
			l46.4-141.2C189.6,57.2,187.4,52.8,182.9,51.3z"/>
		<path class="st22" d="M183.3,51.1l-47.7-15.7L87.9,19.8l-7.4-2.4l-2.9,6.5l4,1.3c0.7-1.1,2.1-1.6,3.4-1.2c1.5,0.5,2.4,2.2,1.9,3.7
			c-0.5,1.5-2.2,2.4-3.7,1.9c-1.3-0.4-2.1-1.7-2-3l-3.4-1.1l-3.2,8l4.2,0.7c0.6-0.6,1.8-1.1,3.1-0.6c1.5,0.5,2.4,2.2,1.9,3.7
			c-0.5,1.5-2.2,2.4-3.7,1.9c-1.3-0.4-2.1-1.7-2-3l-4-1.3l-2.5,7.7l3.8,1.8c0.7-1.1,2.1-1.6,3.4-1.2c1.5,0.5,2.4,2.2,1.9,3.7
			c-0.5,1.5-2.2,2.4-3.7,1.9c-1.3-0.4-2.1-1.7-2-3l-3.8-1.9l-2.9,8.8l4,1.3c0.7-1.1,2.1-1.6,3.4-1.2c1.5,0.5,2.4,2.2,1.9,3.7
			c-0.5,1.5-2.2,2.4-3.7,1.9c-1.3-0.4-2.1-1.7-2-3l-4.2-0.6L65,62l4,1.3c0.7-1.1,2.1-1.7,3.4-1.2c1.5,0.5,2.4,2.2,1.9,3.7
			c-0.5,1.5-2.2,2.4-3.7,1.9c-1.3-0.4-2.1-1.7-2-3l-4-1.3L62.1,71l3.8,1.9c0.7-1.1,2.1-1.6,3.4-1.2c1.5,0.5,2.4,2.2,1.9,3.7
			c-0.5,1.5-2.2,2.4-3.7,1.9c-1.3-0.4-2.2-1.3-2.1-2.6l-3.8-1.7l-2.7,8.2l4,1.3c0.7-1.1,2.1-1.7,3.4-1.2c1.5,0.5,2.4,2.2,1.9,3.7
			c-0.5,1.5-2.2,2.4-3.7,1.9c-1.3-0.4-2.1-1.7-2-3L58.1,83l-2.4,7.3l3.8,1.8c0.7-1.1,2.1-1.6,3.4-1.2c1.5,0.5,2.4,2.2,1.9,3.7
			c-0.5,1.5-2.2,2.4-3.7,1.9c-1.3-0.4-2.1-1.7-2-3l-4-1.3l-2.8,8.6l4.1,0.9c0.7-1.1,2.1-1.7,3.4-1.2c1.5,0.5,2.4,2.2,1.9,3.7
			c-0.5,1.5-2.2,2.4-3.7,1.9c-1.3-0.4-2.1-1.7-2-3l-4.2-0.5l-2.4,7.4l4,1.3c0.7-1.1,2.1-1.7,3.4-1.2c1.5,0.5,2.4,2.2,1.9,3.7
			c-0.5,1.5-2.2,2.4-3.7,1.9c-1.3-0.4-2.1-1.7-2-3l-4-1.3l-2.5,7.5l3.7,2c0.7-1.1,2.1-1.6,3.4-1.2c1.5,0.5,2.4,2.2,1.9,3.7
			c-0.5,1.5-2.2,2.4-3.7,1.9c-1.3-0.4-2.1-1.7-2-3l-3.3-1.1l-3.2,7.4l3.8,1.9c0.7-1.1,2.1-1.7,3.4-1.2c1.5,0.5,2.4,2.2,1.9,3.7
			c-0.5,1.5-2.2,2.4-3.7,1.9c-1.3-0.4-2.1-1.7-2-3l-3.4-1.1l-2.9,8.2l3.6,1.2c0.7-1.1,2.1-1.6,3.4-1.2c1.5,0.5,2.4,2.2,1.9,3.7
			c-0.5,1.5-2.2,2.4-3.7,1.9c-1.3-0.4-2.1-1.7-2-3l-4-1.3l-2.4,7.4l3.7,2.1c0.7-1.1,2.1-1.7,3.4-1.2c1.5,0.5,2.4,2.2,1.9,3.7
			c-0.5,1.5-2.2,2.4-3.7,1.9c-1.3-0.4-2.1-1.7-2-3l-4-1.3l-2,8.4l3.3,1.1c0.7-1.1,2.1-1.7,3.4-1.2c1.5,0.5,2.4,2.2,1.9,3.7
			c-0.5,1.5-2.2,2.4-3.7,1.9c-1.3-0.4-2.1-1.7-2-3l-4.2-0.5l-2.4,7.4l4,1.3c0.7-1.1,2.1-1.6,3.4-1.2c1.5,0.5,2.4,2.2,1.9,3.7
			c-0.5,1.5-2.2,2.4-3.7,1.9c-1.3-0.4-2.1-1.7-2-3l-4.1-0.9l-2.2,6.6l8.1,2.7l47.5,14.9L132,208c4.5,1.5,8.6-0.8,10.1-5.3
			l46.4-141.3C190,57,187.8,52.6,183.3,51.1z"/>
		<path class="st23" d="M183.7,51L136,35.3L88.3,19.6l-7.4-2.4L78,23.6l4,1.3c0.7-1.1,2.1-1.6,3.4-1.2c1.5,0.5,2.4,2.2,1.9,3.7
			c-0.5,1.5-2.2,2.4-3.7,1.9c-1.3-0.4-2.1-1.7-2-3l-3.4-1.1l-3.2,8l4.2,0.7c0.6-0.6,1.8-1.1,3.1-0.6c1.5,0.5,2.4,2.2,1.9,3.7
			c-0.5,1.5-2.2,2.4-3.7,1.9c-1.3-0.4-2.1-1.7-2-3l-4-1.3l-2.5,7.7l3.8,1.8c0.7-1.1,2.1-1.6,3.4-1.2c1.5,0.5,2.4,2.2,1.9,3.7
			c-0.5,1.5-2.2,2.4-3.7,1.9c-1.3-0.4-2.1-1.7-2-3l-3.8-1.9l-2.9,8.8l4,1.3c0.7-1.1,2.1-1.7,3.4-1.2c1.5,0.5,2.4,2.2,1.9,3.7
			c-0.5,1.5-2.2,2.4-3.7,1.9c-1.3-0.4-2.1-1.7-2-3l-4.2-0.6l-2.5,7.5l4,1.3c0.7-1.1,2.1-1.7,3.4-1.2c1.5,0.5,2.4,2.2,1.9,3.7
			c-0.5,1.5-2.2,2.4-3.7,1.9c-1.3-0.4-2.1-1.7-2-3l-4-1.3l-2.5,7.6l3.8,1.9c0.7-1.1,2.1-1.6,3.4-1.2c1.5,0.5,2.4,2.2,1.9,3.7
			c-0.5,1.5-2.2,2.4-3.7,1.9c-1.3-0.4-2.2-1.3-2.1-2.6l-3.8-1.7L59.1,81l4,1.3c0.7-1.1,2.1-1.7,3.4-1.2c1.5,0.5,2.4,2.2,1.9,3.7
			c-0.5,1.5-2.2,2.4-3.7,1.9c-1.3-0.4-2.1-1.7-2-3l-4.1-0.8l-2.4,7.3l3.8,1.8c0.7-1.1,2.1-1.6,3.4-1.2c1.5,0.5,2.4,2.2,1.9,3.7
			c-0.5,1.5-2.2,2.4-3.7,1.9c-1.3-0.4-2.1-1.7-2-3l-4-1.3l-2.8,8.6l4.1,0.9c0.7-1.1,2.1-1.7,3.4-1.2c1.5,0.5,2.4,2.2,1.9,3.7
			c-0.5,1.5-2.2,2.4-3.7,1.9c-1.3-0.4-2.1-1.7-2-3l-4.2-0.5l-2.4,7.4l4,1.3c0.7-1.1,2.1-1.7,3.4-1.2c1.5,0.5,2.4,2.2,1.9,3.7
			c-0.5,1.5-2.2,2.4-3.7,1.9c-1.3-0.4-2.1-1.7-2-3l-4-1.3l-2.5,7.5l3.7,2c0.7-1.1,2.1-1.6,3.4-1.2c1.5,0.5,2.4,2.2,1.9,3.7
			c-0.5,1.5-2.2,2.4-3.7,1.9c-1.3-0.4-2.1-1.7-2-3l-3.3-1.1l-3.2,7.4l3.8,1.9c0.7-1.1,2.1-1.7,3.4-1.2c1.5,0.5,2.4,2.2,1.9,3.7
			c-0.5,1.5-2.2,2.4-3.7,1.9c-1.3-0.4-2.1-1.7-2-3l-3.4-1.1l-2.9,8.2l3.6,1.2c0.7-1.1,2.1-1.6,3.4-1.2c1.5,0.5,2.4,2.2,1.9,3.7
			c-0.5,1.5-2.2,2.4-3.7,1.9c-1.3-0.4-2.1-1.7-2-3l-4-1.3l-2.4,7.4l3.7,2.1c0.7-1.1,2.1-1.7,3.4-1.2c1.5,0.5,2.4,2.2,1.9,3.7
			c-0.5,1.5-2.2,2.4-3.7,1.9c-1.3-0.4-2.1-1.7-2-3l-4-1.3l-2,8.4l3.3,1.1c0.7-1.1,2.1-1.7,3.4-1.2c1.5,0.5,2.4,2.2,1.9,3.7
			c-0.5,1.5-2.2,2.4-3.7,1.9c-1.3-0.4-2.1-1.7-2-3l-4.2-0.5l-2.4,7.4l4,1.3c0.7-1.1,2.1-1.6,3.4-1.2c1.5,0.5,2.4,2.2,1.9,3.7
			c-0.5,1.5-2.2,2.4-3.7,1.9c-1.3-0.4-2.1-1.7-2-3l-4.1-0.9l-2.2,6.6l8.1,2.7l47.5,15l48.6,15c4.5,1.5,8.7-0.8,10.2-5.3l46.5-141.4
			C190.4,56.8,188.2,52.4,183.7,51z"/>
		<path class="st24" d="M184.1,50.8l-47.7-15.7L88.7,19.4L81.2,17l-2.8,6.4l4,1.3c0.7-1.1,2.1-1.6,3.4-1.2c1.5,0.5,2.4,2.2,1.9,3.7
			c-0.5,1.5-2.2,2.4-3.7,1.9c-1.3-0.4-2.1-1.7-2-3l-3.4-1.1l-3.2,8l4.2,0.7c0.6-0.6,1.8-1.1,3.1-0.6c1.5,0.5,2.4,2.2,1.9,3.7
			c-0.5,1.5-2.2,2.4-3.7,1.9c-1.3-0.4-2.1-1.7-2-3l-4-1.3L72.3,42l3.8,1.8c0.7-1.1,2.1-1.6,3.4-1.2c1.5,0.5,2.4,2.2,1.9,3.7
			c-0.5,1.5-2.2,2.4-3.7,1.9c-1.3-0.4-2.1-1.7-2-3l-3.8-1.9L69,52.1l4,1.3c0.7-1.1,2.1-1.7,3.4-1.2c1.5,0.5,2.4,2.2,1.9,3.7
			c-0.5,1.5-2.2,2.4-3.7,1.9c-1.3-0.4-2.1-1.7-2-3l-4.2-0.6l-2.5,7.5l4,1.3c0.7-1.1,2.1-1.7,3.4-1.2c1.5,0.5,2.4,2.2,1.9,3.7
			c-0.5,1.5-2.2,2.4-3.7,1.9c-1.3-0.4-2.1-1.7-2-3l-4-1.3l-2.5,7.6l3.8,1.9c0.7-1.1,2.1-1.6,3.4-1.2c1.5,0.5,2.4,2.2,1.9,3.7
			c-0.5,1.5-2.2,2.4-3.7,1.9c-1.3-0.4-2.2-1.3-2.1-2.6l-3.8-1.7l-2.7,8.2l4,1.3c0.7-1.1,2.1-1.7,3.4-1.2c1.5,0.5,2.4,2.2,1.9,3.7
			c-0.5,1.5-2.2,2.4-3.7,1.9c-1.3-0.4-2.1-1.7-2-3L59,82.6l-2.4,7.3l3.8,1.8c0.7-1.1,2.1-1.6,3.4-1.2c1.5,0.5,2.4,2.2,1.9,3.7
			c-0.5,1.5-2.2,2.4-3.7,1.9c-1.3-0.4-2.1-1.7-2-3l-4-1.3l-2.8,8.6l4.1,0.9c0.7-1.1,2.1-1.7,3.4-1.2c1.5,0.5,2.4,2.2,1.9,3.7
			c-0.5,1.5-2.2,2.4-3.7,1.9c-1.3-0.4-2.1-1.7-2-3l-4.2-0.5l-2.4,7.4l4,1.3c0.7-1.1,2.1-1.7,3.4-1.2c1.5,0.5,2.4,2.2,1.9,3.7
			c-0.5,1.5-2.2,2.4-3.7,1.9c-1.3-0.4-2.1-1.7-2-3l-4-1.3l-2.5,7.5l3.7,2c0.7-1.1,2.1-1.6,3.4-1.2c1.5,0.5,2.4,2.2,1.9,3.7
			c-0.5,1.5-2.2,2.4-3.7,1.9c-1.3-0.4-2.1-1.7-2-3l-3.3-1.1l-3.2,7.4l3.8,1.9c0.7-1.1,2.1-1.7,3.4-1.2c1.5,0.5,2.4,2.2,1.9,3.7
			c-0.5,1.5-2.2,2.4-3.7,1.9c-1.3-0.4-2.1-1.7-2-3l-3.4-1.1l-2.9,8.2l3.6,1.2c0.7-1.1,2.1-1.6,3.4-1.2c1.5,0.5,2.4,2.2,1.9,3.7
			c-0.5,1.5-2.2,2.4-3.7,1.9c-1.3-0.4-2.1-1.7-2-3l-4-1.3l-2.4,7.4l3.7,2.1c0.7-1.1,2.1-1.7,3.4-1.2c1.5,0.5,2.4,2.2,1.9,3.7
			c-0.5,1.5-2.2,2.4-3.7,1.9c-1.3-0.4-2.1-1.7-2-3l-4-1.3l-2,8.4l3.3,1.1c0.7-1.1,2.1-1.7,3.4-1.2c1.5,0.5,2.4,2.2,1.9,3.7
			c-0.5,1.5-2.2,2.4-3.7,1.9c-1.3-0.4-2.1-1.7-2-3l-4.2-0.5l-2.4,7.4l4,1.3c0.7-1.1,2.1-1.6,3.4-1.2c1.5,0.5,2.4,2.2,1.9,3.7
			c-0.5,1.5-2.2,2.4-3.7,1.9c-1.3-0.4-2.1-1.7-2-3l-4.1-0.9l-2.2,6.6l8.1,2.7l47.5,15.1l48.4,15c4.5,1.5,8.8-0.8,10.2-5.3L189.3,61
			C190.8,56.6,188.6,52.2,184.1,50.8z"/>
		<path class="st25" d="M184.5,50.6l-47.7-15.7L89.1,19.2l-7.4-2.4l-2.8,6.4l4,1.3c0.7-1.1,2.1-1.6,3.4-1.2c1.5,0.5,2.4,2.2,1.9,3.7
			c-0.5,1.5-2.2,2.4-3.7,1.9c-1.3-0.4-2.1-1.7-2-3l-3.4-1.1l-3.2,8l4.2,0.7c0.6-0.6,1.8-1,3.1-0.6c1.5,0.5,2.4,2.2,1.9,3.7
			c-0.5,1.5-2.2,2.4-3.7,1.9c-1.3-0.4-2.1-1.7-2-3l-4-1.3l-2.5,7.7l3.8,1.8c0.7-1.1,2.1-1.6,3.4-1.2c1.5,0.5,2.4,2.2,1.9,3.7
			c-0.5,1.5-2.2,2.4-3.7,1.9c-1.3-0.4-2.1-1.7-2-3l-3.8-1.9l-2.9,8.8l4,1.3c0.7-1.1,2.1-1.7,3.4-1.2c1.5,0.5,2.4,2.2,1.9,3.7
			c-0.5,1.5-2.2,2.4-3.7,1.9c-1.3-0.4-2.1-1.7-2-3l-4.2-0.6l-2.5,7.5l4,1.3c0.7-1.1,2.1-1.7,3.4-1.2c1.5,0.5,2.4,2.2,1.9,3.7
			c-0.5,1.5-2.2,2.4-3.7,1.9c-1.3-0.4-2.1-1.7-2-3l-4-1.3l-2.5,7.6l3.8,1.9c0.7-1.1,2.1-1.6,3.4-1.2c1.5,0.5,2.4,2.2,1.9,3.7
			c-0.5,1.5-2.2,2.4-3.7,1.9c-1.3-0.4-2.2-1.3-2.1-2.6l-3.8-1.7L60,80.6l4,1.3c0.7-1.1,2.1-1.7,3.4-1.2c1.5,0.5,2.4,2.2,1.9,3.7
			c-0.5,1.5-2.2,2.4-3.7,1.9c-1.3-0.4-2.1-1.7-2-3l-4.1-0.8L57,89.7l3.8,1.8c0.7-1.1,2.1-1.6,3.4-1.2c1.5,0.5,2.4,2.2,1.9,3.7
			c-0.5,1.5-2.2,2.4-3.7,1.9c-1.3-0.4-2.1-1.7-2-3l-4-1.3l-2.8,8.6l4.1,0.9c0.7-1.1,2.1-1.7,3.4-1.2c1.5,0.5,2.4,2.2,1.9,3.7
			c-0.5,1.5-2.2,2.4-3.7,1.9c-1.3-0.4-2.1-1.7-2-3l-4.2-0.5l-2.4,7.4l4,1.3c0.7-1.1,2.1-1.7,3.4-1.2c1.5,0.5,2.4,2.2,1.9,3.7
			c-0.5,1.5-2.2,2.4-3.7,1.9c-1.3-0.4-2.1-1.7-2-3l-4-1.3l-2.5,7.5l3.7,2c0.7-1.1,2.1-1.6,3.4-1.2c1.5,0.5,2.4,2.2,1.9,3.7
			c-0.5,1.5-2.2,2.4-3.7,1.9c-1.3-0.4-2.1-1.7-2-3l-3.3-1.1l-3.2,7.4l3.8,1.9c0.7-1.1,2.1-1.7,3.4-1.2c1.5,0.5,2.4,2.2,1.9,3.7
			c-0.5,1.5-2.2,2.4-3.7,1.9c-1.3-0.4-2.1-1.7-2-3l-3.4-1.1l-2.9,8.1l3.6,1.2c0.7-1.1,2.1-1.6,3.4-1.2c1.5,0.5,2.4,2.2,1.9,3.7
			c-0.5,1.5-2.2,2.4-3.7,1.9c-1.3-0.4-2.1-1.7-2-3l-4-1.3l-2.4,7.4l3.7,2.1c0.7-1.1,2.1-1.7,3.4-1.2c1.5,0.5,2.4,2.2,1.9,3.7
			c-0.5,1.5-2.2,2.4-3.7,1.9c-1.3-0.4-2.1-1.7-2-3l-4-1.3l-2,8.4l3.3,1.1c0.7-1.1,2.1-1.7,3.4-1.2c1.5,0.5,2.4,2.2,1.9,3.7
			c-0.5,1.5-2.2,2.4-3.7,1.9c-1.3-0.4-2.1-1.7-2-3l-4.2-0.5l-2.4,7.4l4,1.3c0.7-1.1,2.1-1.6,3.4-1.2c1.5,0.5,2.4,2.2,1.9,3.7
			c-0.5,1.5-2.2,2.4-3.7,1.9c-1.3-0.4-2.1-1.7-2-3l-4.1-0.9L29,175l8.1,2.7l47.6,15.1l48.2,15.1c4.5,1.5,8.8-0.9,10.3-5.3
			l46.6-141.7C191.2,56.4,189,52.1,184.5,50.6z"/>
		<path class="st26" d="M185,50.4l-47.7-15.7L89.5,19.1l-7.4-2.4L79.2,23l4,1.3c0.7-1.1,2.1-1.6,3.4-1.2c1.5,0.5,2.4,2.2,1.9,3.7
			c-0.5,1.5-2.2,2.4-3.7,1.9c-1.3-0.4-2.1-1.7-2-3l-3.4-1.1l-3.2,8l4.2,0.7c0.6-0.6,1.8-1,3.1-0.6c1.5,0.5,2.4,2.2,1.9,3.7
			c-0.5,1.5-2.2,2.4-3.7,1.9c-1.3-0.4-2.1-1.7-2-3l-4-1.3l-2.5,7.7l3.8,1.8c0.7-1.1,2.1-1.6,3.4-1.2c1.5,0.5,2.4,2.2,1.9,3.7
			c-0.5,1.5-2.2,2.4-3.7,1.9c-1.3-0.4-2.1-1.7-2-3l-3.8-1.9l-2.9,8.8l4,1.3c0.7-1.1,2.1-1.7,3.4-1.2c1.5,0.5,2.4,2.2,1.9,3.7
			c-0.5,1.5-2.2,2.4-3.7,1.9c-1.3-0.4-2.1-1.7-2-3l-4.2-0.6l-2.5,7.5l4,1.3c0.7-1.1,2.1-1.7,3.4-1.2c1.5,0.5,2.4,2.2,1.9,3.7
			c-0.5,1.5-2.2,2.4-3.7,1.9c-1.3-0.4-2.1-1.7-2-3l-4-1.3l-2.5,7.6l3.8,1.9c0.7-1.1,2.1-1.6,3.4-1.2c1.5,0.5,2.4,2.2,1.9,3.7
			c-0.5,1.5-2.2,2.4-3.7,1.9c-1.3-0.4-2.2-1.3-2.1-2.6l-3.8-1.7l-2.7,8.2l4,1.3c0.7-1.1,2.1-1.7,3.4-1.2c1.5,0.5,2.4,2.2,1.9,3.7
			c-0.5,1.5-2.2,2.4-3.7,1.9c-1.3-0.4-2.1-1.7-2-3l-4.1-0.8l-2.4,7.3l3.8,1.8c0.7-1.1,2.1-1.6,3.4-1.2c1.5,0.5,2.4,2.2,1.9,3.7
			c-0.5,1.5-2.2,2.4-3.7,1.9c-1.3-0.4-2.1-1.7-2-3l-4-1.3L54,99.9l4.1,0.9c0.7-1.1,2.1-1.7,3.4-1.2c1.5,0.5,2.4,2.2,1.9,3.7
			c-0.5,1.5-2.2,2.4-3.7,1.9c-1.3-0.4-2.1-1.7-2-3l-4.2-0.5l-2.4,7.4l4,1.3c0.7-1.1,2.1-1.7,3.4-1.2c1.5,0.5,2.4,2.2,1.9,3.7
			c-0.5,1.5-2.2,2.4-3.7,1.9c-1.3-0.4-2.1-1.7-2-3l-4-1.3l-2.5,7.5l3.7,2c0.7-1.1,2.1-1.6,3.4-1.2c1.5,0.5,2.4,2.2,1.9,3.7
			c-0.5,1.5-2.2,2.4-3.7,1.9c-1.3-0.4-2.1-1.7-2-3l-3.3-1.1l-3.2,7.4l3.8,1.9c0.7-1.1,2.1-1.7,3.4-1.2c1.5,0.5,2.4,2.2,1.9,3.7
			c-0.5,1.5-2.2,2.4-3.7,1.9c-1.3-0.4-2.1-1.7-2-3l-3.4-1.1l-2.9,8.1l3.6,1.2c0.7-1.1,2.1-1.6,3.4-1.2c1.5,0.5,2.4,2.2,1.9,3.7
			c-0.5,1.5-2.2,2.4-3.7,1.9c-1.3-0.4-2.1-1.7-2-3l-4-1.3l-2.4,7.4l3.7,2.1c0.7-1.1,2.1-1.7,3.4-1.2c1.5,0.5,2.4,2.2,1.9,3.7
			c-0.5,1.5-2.2,2.4-3.7,1.9c-1.3-0.4-2.1-1.7-2-3l-4-1.3l-2,8.4l3.3,1.1c0.7-1.1,2.1-1.7,3.4-1.2c1.5,0.5,2.4,2.2,1.9,3.7
			c-0.5,1.5-2.2,2.4-3.7,1.9c-1.3-0.4-2.1-1.7-2-3l-4.2-0.5l-2.4,7.4l4,1.3c0.7-1.1,2.1-1.6,3.4-1.2c1.5,0.5,2.4,2.2,1.9,3.7
			c-0.5,1.5-2.2,2.4-3.7,1.9c-1.3-0.4-2.1-1.7-2-3l-4.1-0.9l-2.2,6.6l8.1,2.7l47.6,15.2l48.1,15.2c4.5,1.5,8.9-0.9,10.4-5.3
			l46.6-141.9C191.6,56.2,189.4,51.9,185,50.4z"/>
		<path class="st27" d="M185.4,50.2l-47.7-15.7L89.9,18.9l-7.4-2.4l-2.8,6.4l4,1.3c0.7-1.1,2.1-1.6,3.4-1.2c1.5,0.5,2.4,2.2,1.9,3.7
			c-0.5,1.5-2.2,2.4-3.7,1.9c-1.3-0.4-2.1-1.7-2-3l-3.4-1.1l-3.3,8l4.2,0.7c0.6-0.6,1.8-1,3.1-0.6c1.5,0.5,2.4,2.2,1.9,3.7
			c-0.5,1.5-2.2,2.4-3.7,1.9c-1.3-0.4-2.1-1.7-2-3l-4-1.3l-2.5,7.7l3.8,1.8c0.7-1.1,2.1-1.6,3.4-1.2c1.5,0.5,2.4,2.2,1.9,3.7
			c-0.5,1.5-2.2,2.4-3.7,1.9c-1.3-0.4-2.1-1.7-2-3l-3.8-1.9l-2.9,8.8l4,1.3c0.7-1.1,2.1-1.7,3.4-1.2c1.5,0.5,2.4,2.2,1.9,3.7
			c-0.5,1.5-2.2,2.4-3.7,1.9c-1.3-0.4-2.1-1.7-2-3l-4.2-0.6l-2.5,7.5l4,1.3c0.7-1.1,2.1-1.7,3.4-1.2c1.5,0.5,2.4,2.2,1.9,3.7
			c-0.5,1.5-2.2,2.4-3.7,1.9c-1.3-0.4-2.1-1.7-2-3l-4-1.3l-2.5,7.6l3.8,1.9c0.7-1.1,2.1-1.6,3.4-1.2c1.5,0.5,2.4,2.2,1.9,3.7
			c-0.5,1.5-2.2,2.4-3.7,1.9c-1.3-0.4-2.2-1.3-2.1-2.6L63.5,72l-2.7,8.2l4,1.3c0.7-1.1,2.1-1.7,3.4-1.2c1.5,0.5,2.4,2.2,1.9,3.7
			c-0.5,1.5-2.2,2.4-3.7,1.9c-1.3-0.4-2.1-1.7-2-3L60.2,82l-2.4,7.3l3.8,1.8c0.7-1.1,2.1-1.6,3.4-1.2c1.5,0.5,2.4,2.2,1.9,3.7
			c-0.5,1.5-2.2,2.4-3.7,1.9c-1.3-0.4-2.1-1.7-2-3l-4-1.3l-2.8,8.6l4.1,0.9c0.7-1.1,2.1-1.7,3.4-1.2c1.5,0.5,2.4,2.2,1.9,3.7
			c-0.5,1.5-2.2,2.4-3.7,1.9c-1.3-0.4-2.1-1.7-2-3l-4.2-0.5l-2.4,7.4l4,1.3c0.7-1.1,2.1-1.7,3.4-1.2c1.5,0.5,2.4,2.2,1.9,3.7
			c-0.5,1.5-2.2,2.4-3.7,1.9c-1.3-0.4-2.1-1.7-2-3l-4-1.3l-2.5,7.5l3.7,2c0.7-1.1,2.1-1.6,3.4-1.2c1.5,0.5,2.4,2.2,1.9,3.7
			c-0.5,1.5-2.2,2.4-3.7,1.9c-1.3-0.4-2.1-1.7-2-3l-3.3-1.1l-3.2,7.4l3.8,1.9c0.7-1.1,2.1-1.7,3.4-1.2c1.5,0.5,2.4,2.2,1.9,3.7
			c-0.5,1.5-2.2,2.4-3.7,1.9c-1.3-0.4-2.1-1.7-2-3l-3.4-1.1l-2.9,8.1l3.6,1.2c0.7-1.1,2.1-1.6,3.4-1.2c1.5,0.5,2.4,2.2,1.9,3.7
			c-0.5,1.5-2.2,2.4-3.7,1.9c-1.3-0.4-2.1-1.7-2-3l-4-1.3l-2.4,7.4l3.7,2.1c0.7-1.1,2.1-1.7,3.4-1.2c1.5,0.5,2.4,2.2,1.9,3.7
			c-0.5,1.5-2.2,2.4-3.7,1.9c-1.3-0.4-2.1-1.7-2-3l-4-1.3l-2,8.4l3.3,1.1c0.7-1.1,2.1-1.7,3.4-1.2c1.5,0.5,2.4,2.2,1.9,3.7
			c-0.5,1.5-2.2,2.4-3.7,1.9c-1.3-0.4-2.1-1.7-2-3l-4.2-0.5l-2.4,7.4l4,1.3c0.7-1.1,2.1-1.6,3.4-1.2c1.5,0.5,2.4,2.2,1.9,3.7
			c-0.5,1.5-2.2,2.4-3.7,1.9c-1.3-0.4-2.1-1.7-2-3l-4.1-0.9l-2.2,6.6l8.1,2.7l47.6,15.3l47.9,15.2c4.5,1.5,9-0.9,10.5-5.4l46.6-142
			C192,56,189.8,51.7,185.4,50.2z"/>
		<path class="st28" d="M185.8,50L138,34.4L90.3,18.7l-7.4-2.4L80,22.6l4,1.3c0.7-1.1,2.1-1.6,3.4-1.2c1.5,0.5,2.4,2.2,1.9,3.7
			c-0.5,1.5-2.2,2.4-3.7,1.9c-1.3-0.4-2.1-1.7-2-3l-3.4-1.1l-3.3,8l4.2,0.7c0.6-0.6,1.8-1,3.1-0.6c1.5,0.5,2.4,2.2,1.9,3.7
			c-0.5,1.5-2.2,2.4-3.7,1.9c-1.3-0.4-2.1-1.7-2-3l-4-1.3l-2.5,7.7l3.8,1.8c0.7-1.1,2.1-1.6,3.4-1.2c1.5,0.5,2.4,2.2,1.9,3.7
			c-0.5,1.5-2.2,2.4-3.7,1.9c-1.3-0.4-2.1-1.7-2-3l-3.8-1.9l-2.9,8.8l4,1.3c0.7-1.1,2.1-1.7,3.4-1.2c1.5,0.5,2.4,2.2,1.9,3.7
			c-0.5,1.5-2.2,2.4-3.7,1.9c-1.3-0.4-2.1-1.7-2-3L70,53.3l-2.5,7.5l4,1.3c0.7-1.1,2.1-1.7,3.4-1.2c1.5,0.5,2.4,2.2,1.9,3.7
			c-0.5,1.5-2.2,2.4-3.7,1.9c-1.3-0.4-2.1-1.7-2-3l-4-1.3l-2.5,7.6l3.8,1.9c0.7-1.1,2.1-1.6,3.4-1.2c1.5,0.5,2.4,2.2,1.9,3.7
			c-0.5,1.5-2.2,2.4-3.7,1.9c-1.3-0.4-2.2-1.3-2.1-2.6l-3.8-1.7L61.2,80l4,1.3c0.7-1.1,2.1-1.7,3.4-1.2c1.5,0.5,2.4,2.2,1.9,3.7
			c-0.5,1.5-2.2,2.4-3.7,1.9c-1.3-0.4-2.1-1.7-2-3l-4.1-0.8l-2.4,7.3l3.8,1.8c0.7-1.1,2.1-1.6,3.4-1.2c1.5,0.5,2.4,2.2,1.9,3.7
			c-0.5,1.5-2.2,2.4-3.7,1.9c-1.3-0.4-2.1-1.7-2-3l-4-1.3l-2.8,8.6l4.1,0.9c0.7-1.1,2.1-1.7,3.4-1.2c1.5,0.5,2.4,2.2,1.9,3.7
			c-0.5,1.5-2.2,2.4-3.7,1.9c-1.3-0.4-2.1-1.7-2-3l-4.2-0.5l-2.4,7.4l4,1.3c0.7-1.1,2.1-1.7,3.4-1.2c1.5,0.5,2.4,2.2,1.9,3.7
			c-0.5,1.5-2.2,2.4-3.7,1.9c-1.3-0.4-2.1-1.7-2-3l-4-1.3l-2.5,7.5l3.7,2c0.7-1.1,2.1-1.6,3.4-1.2c1.5,0.5,2.4,2.2,1.9,3.7
			c-0.5,1.5-2.2,2.4-3.7,1.9c-1.3-0.4-2.1-1.7-2-3l-3.3-1.1l-3.2,7.4l3.8,1.9c0.7-1.1,2.1-1.7,3.4-1.2c1.5,0.5,2.4,2.2,1.9,3.7
			c-0.5,1.5-2.2,2.4-3.7,1.9c-1.3-0.4-2.1-1.7-2-3l-3.4-1.1l-2.9,8.1l3.6,1.2c0.7-1.1,2.1-1.6,3.4-1.2c1.5,0.5,2.4,2.2,1.9,3.7
			c-0.5,1.5-2.2,2.4-3.7,1.9c-1.3-0.4-2.1-1.7-2-3l-4-1.3l-2.4,7.4l3.7,2.1c0.7-1.1,2.1-1.7,3.4-1.2c1.5,0.5,2.4,2.2,1.9,3.7
			c-0.5,1.5-2.2,2.4-3.7,1.9c-1.3-0.4-2.1-1.7-2-3l-4-1.3l-2,8.4l3.3,1.1c0.7-1.1,2.1-1.7,3.4-1.2c1.5,0.5,2.4,2.2,1.9,3.7
			c-0.5,1.5-2.2,2.4-3.7,1.9c-1.3-0.4-2.1-1.7-2-3l-4.2-0.5l-2.4,7.4l4,1.3c0.7-1.1,2.1-1.6,3.4-1.2c1.5,0.5,2.4,2.2,1.9,3.7
			c-0.5,1.5-2.2,2.4-3.7,1.9c-1.3-0.4-2.1-1.7-2-3l-4.1-0.9l-2.2,6.6l8.1,2.7l47.6,15.4l47.7,15.3c4.5,1.5,9.1-0.9,10.5-5.4
			l46.7-142.2C192.4,55.7,190.2,51.5,185.8,50z"/>
		<path class="st29" d="M186.2,49.9l-47.7-15.7L90.7,18.5l-7.4-2.4l-2.8,6.4l4,1.3c0.7-1.1,2.1-1.6,3.4-1.2c1.5,0.5,2.4,2.2,1.9,3.7
			c-0.5,1.5-2.2,2.4-3.7,1.9c-1.3-0.4-2.1-1.7-2-3L80.6,24l-3.3,8l4.2,0.7c0.6-0.6,1.8-1,3.1-0.6c1.5,0.5,2.4,2.2,1.9,3.7
			c-0.5,1.5-2.2,2.4-3.7,1.9c-1.3-0.4-2.1-1.7-2-3l-4-1.3L74.4,41l3.8,1.8c0.7-1.1,2.1-1.6,3.4-1.2c1.5,0.5,2.4,2.2,1.9,3.7
			c-0.5,1.5-2.2,2.4-3.7,1.9c-1.3-0.4-2.1-1.7-2-3l-3.8-1.9L71,51.1l4,1.3c0.7-1.1,2.1-1.7,3.4-1.2c1.5,0.5,2.4,2.2,1.9,3.7
			c-0.5,1.5-2.2,2.4-3.7,1.9c-1.3-0.4-2.1-1.7-2-3l-4.2-0.6l-2.5,7.5l4,1.3c0.7-1.1,2.1-1.7,3.4-1.2c1.5,0.5,2.4,2.2,1.9,3.7
			c-0.5,1.5-2.2,2.4-3.7,1.9c-1.3-0.4-2.1-1.7-2-3l-4-1.3l-2.5,7.6l3.8,1.9c0.7-1.1,2.1-1.6,3.4-1.2c1.5,0.5,2.4,2.2,1.9,3.7
			c-0.5,1.5-2.2,2.4-3.7,1.9c-1.3-0.4-2.2-1.3-2.1-2.6l-3.8-1.7l-2.7,8.2l4,1.3c0.7-1.1,2.1-1.7,3.4-1.2c1.5,0.5,2.4,2.2,1.9,3.7
			c-0.5,1.5-2.2,2.4-3.7,1.9c-1.3-0.4-2.1-1.7-2-3L61,81.6l-2.4,7.3l3.8,1.8c0.7-1.1,2.1-1.6,3.4-1.2c1.5,0.5,2.4,2.2,1.9,3.7
			c-0.5,1.5-2.2,2.4-3.7,1.9c-1.3-0.4-2.1-1.7-2-3l-4-1.3l-2.8,8.6l4.1,0.9c0.7-1.1,2.1-1.7,3.4-1.2c1.5,0.5,2.4,2.2,1.9,3.7
			c-0.5,1.5-2.2,2.4-3.7,1.9c-1.3-0.4-2.1-1.7-2-3l-4.2-0.5l-2.4,7.4l4,1.3c0.7-1.1,2.1-1.7,3.4-1.2c1.5,0.5,2.4,2.2,1.9,3.7
			c-0.5,1.5-2.2,2.4-3.7,1.9c-1.3-0.4-2.1-1.7-2-3l-4-1.3l-2.5,7.5l3.7,2c0.7-1.1,2.1-1.6,3.4-1.2c1.5,0.5,2.4,2.2,1.9,3.7
			c-0.5,1.5-2.2,2.4-3.7,1.9c-1.3-0.4-2.1-1.7-2-3l-3.3-1.1l-3.2,7.4l3.8,1.9c0.7-1.1,2.1-1.7,3.4-1.2c1.5,0.5,2.4,2.2,1.9,3.7
			c-0.5,1.5-2.2,2.4-3.7,1.9c-1.3-0.4-2.1-1.7-2-3l-3.4-1.1l-2.9,8.1l3.6,1.2c0.7-1.1,2.1-1.6,3.4-1.2c1.5,0.5,2.4,2.2,1.9,3.7
			c-0.5,1.5-2.2,2.4-3.7,1.9c-1.3-0.4-2.1-1.7-2-3l-4-1.3l-2.4,7.4l3.7,2.1c0.7-1.1,2.1-1.7,3.4-1.2c1.5,0.5,2.4,2.2,1.9,3.7
			c-0.5,1.5-2.2,2.4-3.7,1.9c-1.3-0.4-2.1-1.7-2-3l-4-1.3l-2,8.4l3.3,1.1c0.7-1.1,2.1-1.7,3.4-1.2c1.5,0.5,2.4,2.2,1.9,3.7
			c-0.5,1.5-2.2,2.4-3.7,1.9c-1.3-0.4-2.1-1.7-2-3l-4.2-0.5l-2.4,7.4l4,1.3c0.7-1.1,2.1-1.6,3.4-1.2c1.5,0.5,2.4,2.2,1.9,3.7
			c-0.5,1.5-2.2,2.4-3.7,1.9c-1.3-0.4-2.1-1.7-2-3l-4.1-0.9l-2.2,6.6l8.1,2.7l47.7,15.5l47.6,15.4c4.5,1.5,9.1-0.9,10.6-5.4
			L191.3,60C192.8,55.5,190.6,51.3,186.2,49.9z"/>
		<path class="st30" d="M186.6,49.7L138.8,34L91.1,18.3l-7.4-2.4l-2.8,6.3l4,1.3c0.7-1.1,2.1-1.6,3.4-1.2c1.5,0.5,2.4,2.2,1.9,3.7
			c-0.5,1.5-2.2,2.4-3.7,1.9c-1.3-0.4-2.1-1.7-2-3L81,23.8l-3.3,8l4.2,0.7c0.6-0.6,1.8-1,3.1-0.6c1.5,0.5,2.4,2.2,1.9,3.7
			c-0.5,1.5-2.2,2.4-3.7,1.9c-1.3-0.4-2.1-1.7-2-3l-4-1.3l-2.5,7.7l3.8,1.8c0.7-1.1,2.1-1.6,3.4-1.2c1.5,0.5,2.4,2.2,1.9,3.7
			c-0.5,1.5-2.2,2.4-3.7,1.9c-1.3-0.4-2.1-1.7-2-3l-3.8-1.9l-2.9,8.8l4,1.3c0.7-1.1,2.1-1.7,3.4-1.2c1.5,0.5,2.4,2.2,1.9,3.7
			c-0.5,1.5-2.2,2.4-3.7,1.9c-1.3-0.4-2.1-1.7-2-3l-4.2-0.6l-2.5,7.5l4,1.3c0.7-1.1,2.1-1.7,3.4-1.2c1.5,0.5,2.4,2.2,1.9,3.7
			c-0.5,1.5-2.2,2.4-3.7,1.9c-1.3-0.4-2.1-1.7-2-3l-4-1.3l-2.5,7.6l3.8,1.9c0.7-1.1,2.1-1.6,3.4-1.2c1.5,0.5,2.4,2.2,1.9,3.7
			c-0.5,1.5-2.2,2.4-3.7,1.9c-1.3-0.4-2.2-1.3-2.1-2.6l-3.8-1.7L62,79.6l4,1.3c0.7-1.1,2.1-1.7,3.4-1.2c1.5,0.5,2.4,2.2,1.9,3.7
			c-0.5,1.5-2.2,2.4-3.7,1.9c-1.3-0.4-2.1-1.7-2-3l-4.1-0.8L59,88.7l3.8,1.8c0.7-1.1,2.1-1.6,3.4-1.2c1.5,0.5,2.4,2.2,1.9,3.7
			c-0.5,1.5-2.2,2.4-3.7,1.9c-1.3-0.4-2.1-1.7-2-3l-4-1.3l-2.8,8.6l4.1,0.9c0.7-1.1,2.1-1.7,3.4-1.2c1.5,0.5,2.4,2.2,1.9,3.7
			c-0.5,1.5-2.2,2.4-3.7,1.9c-1.3-0.4-2.1-1.7-2-3l-4.2-0.5l-2.4,7.4l4,1.3c0.7-1.1,2.1-1.7,3.4-1.2c1.5,0.5,2.4,2.2,1.9,3.7
			c-0.5,1.5-2.2,2.4-3.7,1.9c-1.3-0.4-2.1-1.7-2-3l-4-1.3l-2.5,7.5l3.7,2c0.7-1.1,2.1-1.6,3.4-1.2c1.5,0.5,2.4,2.2,1.9,3.7
			c-0.5,1.5-2.2,2.4-3.7,1.9c-1.3-0.4-2.1-1.7-2-3l-3.3-1.1l-3.2,7.4l3.8,1.9c0.7-1.1,2.1-1.7,3.4-1.2c1.5,0.5,2.4,2.2,1.9,3.7
			c-0.5,1.5-2.2,2.4-3.7,1.9c-1.3-0.4-2.1-1.7-2-3l-3.4-1.1l-2.9,8.1l3.6,1.2c0.7-1.1,2.1-1.6,3.4-1.2c1.5,0.5,2.4,2.2,1.9,3.7
			c-0.5,1.5-2.2,2.4-3.7,1.9c-1.3-0.4-2.1-1.7-2-3l-4-1.3l-2.4,7.4l3.7,2.1c0.7-1.1,2.1-1.7,3.4-1.2c1.5,0.5,2.4,2.2,1.9,3.7
			c-0.5,1.5-2.2,2.4-3.7,1.9c-1.3-0.4-2.1-1.7-2-3l-4-1.3l-2,8.4l3.3,1.1c0.7-1.1,2.1-1.7,3.4-1.2c1.5,0.5,2.4,2.2,1.9,3.7
			c-0.5,1.5-2.2,2.4-3.7,1.9c-1.3-0.4-2.1-1.7-2-3l-4.2-0.5l-2.4,7.4l4,1.3c0.7-1.1,2.1-1.6,3.4-1.2c1.5,0.5,2.4,2.2,1.9,3.7
			c-0.5,1.5-2.2,2.4-3.7,1.9c-1.3-0.4-2.1-1.7-2-3l-4.1-0.9L31,174l8.1,2.7l47.7,15.6l47.4,15.4c4.5,1.5,9.2-0.9,10.7-5.4
			l46.8-142.5C193.2,55.3,191,51.2,186.6,49.7z"/>
		<path class="st31" d="M187,49.5l-47.7-15.7L91.5,18.1l-7.4-2.4L81.3,22l4,1.3c0.7-1.1,2.1-1.6,3.4-1.2c1.5,0.5,2.4,2.2,1.9,3.7
			c-0.5,1.5-2.2,2.4-3.7,1.9c-1.3-0.4-2.1-1.7-2-3l-3.4-1.1l-3.3,8l4.2,0.7c0.6-0.6,1.8-1,3.1-0.6c1.5,0.5,2.4,2.2,1.9,3.7
			c-0.5,1.5-2.2,2.4-3.7,1.9c-1.3-0.4-2.1-1.7-2-3l-4-1.3l-2.5,7.7l3.8,1.8c0.7-1.1,2.1-1.6,3.4-1.2c1.5,0.5,2.4,2.2,1.9,3.7
			c-0.5,1.5-2.2,2.4-3.7,1.9c-1.3-0.4-2.1-1.7-2-3l-3.8-1.9l-2.9,8.8l4,1.3c0.7-1.1,2.1-1.7,3.4-1.2c1.5,0.5,2.4,2.2,1.9,3.7
			c-0.5,1.5-2.2,2.4-3.7,1.9c-1.3-0.4-2.1-1.7-2-3l-4.2-0.6l-2.5,7.5l4,1.3c0.7-1.1,2.1-1.7,3.4-1.2c1.5,0.5,2.4,2.2,1.9,3.7
			c-0.5,1.5-2.2,2.4-3.7,1.9c-1.3-0.4-2.1-1.7-2-3l-4-1.3l-2.5,7.6l3.8,1.9c0.7-1.1,2.1-1.6,3.4-1.2c1.5,0.5,2.4,2.2,1.9,3.7
			c-0.5,1.5-2.2,2.4-3.7,1.9c-1.3-0.4-2.2-1.3-2.1-2.6l-3.8-1.7l-2.7,8.2l4,1.3c0.7-1.1,2.1-1.7,3.4-1.2c1.5,0.5,2.4,2.2,1.9,3.7
			c-0.5,1.5-2.2,2.4-3.7,1.9c-1.3-0.4-2.1-1.7-2-3l-4.1-0.8l-2.4,7.3l3.8,1.8c0.7-1.1,2.1-1.6,3.4-1.2c1.5,0.5,2.4,2.2,1.9,3.7
			c-0.5,1.5-2.2,2.4-3.7,1.9c-1.3-0.4-2.1-1.7-2-3l-4-1.3L56,98.9l4.1,0.9c0.7-1.1,2.1-1.7,3.4-1.2c1.5,0.5,2.4,2.2,1.9,3.7
			c-0.5,1.5-2.2,2.4-3.7,1.9c-1.3-0.4-2.1-1.7-2-3l-4.2-0.5l-2.4,7.4l4,1.3c0.7-1.1,2.1-1.7,3.4-1.2c1.5,0.5,2.4,2.2,1.9,3.7
			c-0.5,1.5-2.2,2.4-3.7,1.9c-1.3-0.4-2.1-1.7-2-3l-4-1.3l-2.5,7.5l3.7,2c0.7-1.1,2.1-1.6,3.4-1.2c1.5,0.5,2.4,2.2,1.9,3.7
			c-0.5,1.5-2.2,2.4-3.7,1.9c-1.3-0.4-2.1-1.7-2-3l-3.3-1.1l-3.2,7.4l3.8,1.9c0.7-1.1,2.1-1.7,3.4-1.2c1.5,0.5,2.4,2.2,1.9,3.7
			c-0.5,1.5-2.2,2.4-3.7,1.9c-1.3-0.4-2.1-1.7-2-3l-3.4-1.1l-2.9,8.1l3.6,1.2c0.7-1.1,2.1-1.6,3.4-1.2c1.5,0.5,2.4,2.2,1.9,3.7
			c-0.5,1.5-2.2,2.4-3.7,1.9c-1.3-0.4-2.1-1.7-2-3l-4-1.3l-2.4,7.4l3.7,2.1c0.7-1.1,2.1-1.7,3.4-1.2c1.5,0.5,2.4,2.2,1.9,3.7
			c-0.5,1.5-2.2,2.4-3.7,1.9c-1.3-0.4-2.1-1.7-2-3l-4-1.3l-2,8.4l3.3,1.1c0.7-1.1,2.1-1.7,3.4-1.2c1.5,0.5,2.4,2.2,1.9,3.7
			c-0.5,1.5-2.2,2.4-3.7,1.9c-1.3-0.4-2.1-1.7-2-3l-4.2-0.5l-2.4,7.4l4,1.3c0.7-1.1,2.1-1.6,3.4-1.2c1.5,0.5,2.4,2.2,1.9,3.7
			c-0.5,1.5-2.2,2.4-3.7,1.9c-1.3-0.4-2.1-1.7-2-3l-4.1-0.9l-2.2,6.6l8.1,2.7l47.7,15.7l47.2,15.5c4.5,1.5,9.3-1,10.8-5.4
			l46.8-142.6C193.6,55.1,191.5,51,187,49.5z"/>
	</g>
	
		<linearGradient id="SVGID_1_" gradientUnits="userSpaceOnUse" x1="43.7201" y1="181.9328" x2="183.5495" y2="42.1035" gradientTransform="matrix(0.9501 0.3121 -0.3121 0.9501 38.0719 -29.71)">
		<stop  offset="0.2536" style="stop-color:#F2F3F1"/>
		<stop  offset="1" style="stop-color:#EAEBEB"/>
	</linearGradient>
	<path class="st32" d="M187.1,49l-47.7-15.7L91.7,17.7l-7.4-2.4l-3,6.8l4,1.3c0.7-1.1,2.1-1.6,3.4-1.2c1.5,0.5,2.4,2.2,1.9,3.7
		c-0.5,1.5-2.2,2.4-3.7,1.9c-1.3-0.4-2.1-1.7-2-3l-3.4-1.1l-3.3,8l4.2,0.7c0.6-0.6,1.8-1,3.1-0.6c1.5,0.5,2.4,2.2,1.9,3.7
		c-0.5,1.5-2.2,2.4-3.7,1.9c-1.3-0.4-2.1-1.7-2-3l-4-1.3l-2.5,7.7l3.8,1.8c0.7-1.1,2.1-1.6,3.4-1.2c1.5,0.5,2.4,2.2,1.9,3.7
		c-0.5,1.5-2.2,2.4-3.7,1.9c-1.3-0.4-2.1-1.7-2-3l-3.8-1.9l-2.9,8.8l4,1.3c0.7-1.1,2.1-1.7,3.4-1.2c1.5,0.5,2.4,2.2,1.9,3.7
		c-0.5,1.5-2.2,2.4-3.7,1.9c-1.3-0.4-2.1-1.7-2-3l-4.2-0.6l-2.5,7.5l4,1.3c0.7-1.1,2.1-1.7,3.4-1.2c1.5,0.5,2.4,2.2,1.9,3.7
		c-0.5,1.5-2.2,2.4-3.7,1.9c-1.3-0.4-2.1-1.7-2-3l-4-1.3l-2.5,7.6l3.8,1.9c0.7-1.1,2.1-1.6,3.4-1.2c1.5,0.5,2.4,2.2,1.9,3.7
		c-0.5,1.5-2.2,2.4-3.7,1.9c-1.3-0.4-2.2-1.3-2.1-2.6l-3.8-1.7l-2.7,8.2l4,1.3c0.7-1.1,2.1-1.7,3.4-1.2c1.5,0.5,2.4,2.2,1.9,3.7
		c-0.5,1.5-2.2,2.4-3.7,1.9c-1.3-0.4-2.1-1.7-2-3l-4.1-0.8l-2.4,7.3l3.8,1.8c0.7-1.1,2.1-1.6,3.4-1.2c1.5,0.5,2.4,2.2,1.9,3.7
		c-0.5,1.5-2.2,2.4-3.7,1.9c-1.3-0.4-2.1-1.7-2-3l-4-1.3L56,98.9l4.1,0.9c0.7-1.1,2.1-1.7,3.4-1.2c1.5,0.5,2.4,2.2,1.9,3.7
		c-0.5,1.5-2.2,2.4-3.7,1.9c-1.3-0.4-2.1-1.7-2-3l-4.2-0.5l-2.4,7.4l4,1.3c0.7-1.1,2.1-1.7,3.4-1.2c1.5,0.5,2.4,2.2,1.9,3.7
		c-0.5,1.5-2.2,2.4-3.7,1.9c-1.3-0.4-2.1-1.7-2-3l-4-1.3l-2.5,7.5l3.7,2c0.7-1.1,2.1-1.6,3.4-1.2c1.5,0.5,2.4,2.2,1.9,3.7
		c-0.5,1.5-2.2,2.4-3.7,1.9c-1.3-0.4-2.1-1.7-2-3l-3.3-1.1l-3.2,7.4l3.8,1.9c0.7-1.1,2.1-1.7,3.4-1.2c1.5,0.5,2.4,2.2,1.9,3.7
		c-0.5,1.5-2.2,2.4-3.7,1.9c-1.3-0.4-2.1-1.7-2-3l-3.4-1.1l-2.9,8.1l3.6,1.2c0.7-1.1,2.1-1.6,3.4-1.2c1.5,0.5,2.4,2.2,1.9,3.7
		c-0.5,1.5-2.2,2.4-3.7,1.9c-1.3-0.4-2.1-1.7-2-3l-4-1.3l-2.4,7.4l3.7,2.1c0.7-1.1,2.1-1.7,3.4-1.2c1.5,0.5,2.4,2.2,1.9,3.7
		c-0.5,1.5-2.2,2.4-3.7,1.9c-1.3-0.4-2.1-1.7-2-3l-4-1.3l-2,8.4l3.3,1.1c0.7-1.1,2.1-1.7,3.4-1.2c1.5,0.5,2.4,2.2,1.9,3.7
		c-0.5,1.5-2.2,2.4-3.7,1.9c-1.3-0.4-2.1-1.7-2-3l-4.2-0.5l-2.4,7.4l4,1.3c0.7-1.1,2.1-1.6,3.4-1.2c1.5,0.5,2.4,2.2,1.9,3.7
		c-0.5,1.5-2.2,2.4-3.7,1.9c-1.3-0.4-2.1-1.7-2-3l-4.1-0.9l-2.2,6.6l8.1,2.7l47.7,15.7l47.7,15.7c4.5,1.5,9.3-1,10.8-5.4l46.8-142.6
		C194,55.3,191.6,50.5,187.1,49z"/>
	<g>
		
			<rect x="-4.6" y="100.8" transform="matrix(0.3121 -0.9501 0.9501 0.3121 -42.9561 142.6115)" class="st33" width="163.2" height="0.4"/>
	</g>
	<g>
		
			<rect x="136.7" y="1.3" transform="matrix(0.3121 -0.9501 0.9501 0.3121 44.538 165.9866)" class="st33" width="0.4" height="101.8"/>
	</g>
	<g>
		
			<rect x="135" y="6.7" transform="matrix(0.3121 -0.9501 0.9501 0.3121 38.1812 168.0182)" class="st34" width="0.2" height="101.8"/>
	</g>
	<g>
		
			<rect x="133.2" y="12.1" transform="matrix(0.3121 -0.9501 0.9501 0.3121 31.804 170.0564)" class="st34" width="0.2" height="101.8"/>
	</g>
	<g>
		
			<rect x="131.4" y="17.6" transform="matrix(0.3121 -0.9501 0.9501 0.3121 25.4171 172.0977)" class="st34" width="0.2" height="101.8"/>
	</g>
	<g>
		
			<rect x="129.7" y="23" transform="matrix(0.3121 -0.9501 0.9501 0.3121 19.0348 174.1375)" class="st34" width="0.2" height="101.8"/>
	</g>
	<g>
		
			<rect x="127.9" y="28.4" transform="matrix(0.3121 -0.9501 0.9501 0.3121 12.6526 176.1773)" class="st34" width="0.2" height="101.8"/>
	</g>
	<g>
		
			<rect x="126.1" y="33.9" transform="matrix(0.3121 -0.9501 0.9501 0.3121 6.2713 178.2168)" class="st34" width="0.2" height="101.8"/>
	</g>
	<g>
		
			<rect x="124.3" y="39.3" transform="matrix(0.3121 -0.9501 0.9501 0.3121 -0.111 180.2566)" class="st34" width="0.2" height="101.8"/>
	</g>
	<g>
		
			<rect x="122.5" y="44.7" transform="matrix(0.3121 -0.9501 0.9501 0.3121 -6.4933 182.2964)" class="st34" width="0.2" height="101.8"/>
	</g>
	<g>
		
			<rect x="120.7" y="50.1" transform="matrix(0.3121 -0.9501 0.9501 0.3121 -12.8756 184.3362)" class="st34" width="0.2" height="101.8"/>
	</g>
	<g>
		
			<rect x="119" y="55.6" transform="matrix(0.3121 -0.9501 0.9501 0.3121 -19.2625 186.3775)" class="st34" width="0.2" height="101.8"/>
	</g>
	<g>
		
			<rect x="117.2" y="61" transform="matrix(0.3121 -0.9501 0.9501 0.3121 -25.6442 188.4172)" class="st34" width="0.2" height="101.8"/>
	</g>
	<g>
		
			<rect x="115.4" y="66.4" transform="matrix(0.3121 -0.9501 0.9501 0.3121 -32.0265 190.457)" class="st34" width="0.2" height="101.8"/>
	</g>
	<g>
		
			<rect x="113.6" y="71.8" transform="matrix(0.3121 -0.9501 0.9501 0.3121 -38.4083 192.4966)" class="st34" width="0.2" height="101.8"/>
	</g>
	<g>
		
			<rect x="111.8" y="77.3" transform="matrix(0.3121 -0.9501 0.9501 0.3121 -44.7906 194.5364)" class="st34" width="0.2" height="101.8"/>
	</g>
	<g>
		
			<rect x="110" y="82.7" transform="matrix(0.3121 -0.9501 0.9501 0.3121 -51.1724 196.5761)" class="st34" width="0.2" height="101.8"/>
	</g>
	<g>
		
			<rect x="108.3" y="88.1" transform="matrix(0.3121 -0.9501 0.9501 0.3121 -57.5547 198.6159)" class="st34" width="0.2" height="101.8"/>
	</g>
	<g>
		
			<rect x="106.5" y="93.6" transform="matrix(0.3121 -0.9501 0.9501 0.3121 -63.9364 200.6555)" class="st34" width="0.2" height="101.8"/>
	</g>
	<g>
		
			<rect x="104.7" y="99" transform="matrix(0.3121 -0.9501 0.9501 0.3121 -70.3187 202.6954)" class="st34" width="0.2" height="101.8"/>
	</g>
	<g>
		
			<rect x="102.9" y="104.4" transform="matrix(0.3121 -0.9501 0.9501 0.3121 -76.7005 204.735)" class="st34" width="0.2" height="101.8"/>
	</g>
	<g>
		
			<rect x="101.1" y="109.8" transform="matrix(0.3121 -0.9501 0.9501 0.3121 -83.0828 206.7748)" class="st34" width="0.2" height="101.8"/>
	</g>
	<g>
		
			<rect x="99.4" y="115.3" transform="matrix(0.3121 -0.9501 0.9501 0.3121 -89.4651 208.8146)" class="st34" width="0.2" height="101.8"/>
	</g>
	<g>
		
			<rect x="97.6" y="120.7" transform="matrix(0.3121 -0.9501 0.9501 0.3121 -95.8469 210.8543)" class="st34" width="0.2" height="101.8"/>
	</g>
	<g>
		
			<rect x="95.8" y="126.1" transform="matrix(0.3121 -0.9501 0.9501 0.3121 -102.2337 212.8956)" class="st34" width="0.2" height="101.8"/>
	</g>
	<g>
		
			<rect x="94" y="131.5" transform="matrix(0.3121 -0.9501 0.9501 0.3121 -108.616 214.9354)" class="st34" width="0.2" height="101.8"/>
	</g>
</g>
</svg>
