<?xml version="1.0" encoding="utf-8"?>
<!-- Generator: Adobe Illustrator 21.1.0, SVG Export Plug-In . SVG Version: 6.00 Build 0)  -->
<svg version="1.1" id="Layer_1" xmlns="http://www.w3.org/2000/svg" xmlns:xlink="http://www.w3.org/1999/xlink" x="0px" y="0px"
	 viewBox="0 0 108 108" style="enable-background:new 0 0 108 108;" xml:space="preserve">
<style type="text/css">
	.st0{fill:#444D57;}
	.st1{fill:#515D67;}
	.st2{fill:#6A7884;}
	.st3{fill:#8D9EAC;}
	.st4{fill:#8595A2;}
	.st5{fill:#97AABB;}
</style>
<g>
	<g>
		<path class="st0" d="M66.9,23.3L65,27.4l-4.6,5L61.3,59l-0.9,7.8l3.3,12.9c0.5,3.4,1,6.7,1.5,10.1c0.2,1.4,0.1,4.6,1.6,4.7
			c1.2,0.1,3.4-2.4,4.3-3.1c1.6-1.3,3.2-2.5,4.9-3.8c0.8-0.6,1.6-1.2,2.1-2c1.4-2,1.4-5.7,1.7-8c0.2-1.4,0.1-4,0.8-5.2l8.5-15.3
			l6.9-7.4c0,0-1.6-12.1-3.7-18.2c-2.2-6.1-2.9-7.9-2.9-7.9l-10.1,0.7L66.9,23.3z"/>
		<path class="st0" d="M85.8,75l-0.3,8.2c0,0-1.6,11.6-1.3,11.1c0.2-0.5,15.2-11.5,15.2-11.5s3-9.9,4.1-15.5
			c1.1-5.6,1.3-10.4,1.3-10.4s-6.7,5.4-10.3,8.9C90.7,69.2,85.8,75,85.8,75z"/>
		<path class="st1" d="M71.3,91.4c0-0.2,12.8,2.9,12.8,2.9l1.3-11.1l0.2-8.9l-5-1.3l-1.8,12.2L71.3,91.4z"/>
		<path class="st2" d="M85.8,75c0.3-0.9,9.3-10,9.6-10.5c0.2-0.5,6.8-5.7,6.8-5.7l2.5-2l-8.5-7.1c0,0-4.6,4.7-8.6,10.6
			c-4,5.9-6.7,12-6.7,12L85.8,75z"/>
		<path class="st3" d="M60.9,31.5l4.2-4.1l1.9-4.1l12.5,0.9l10.1-0.7c0,0-4-3.1-10.7-5S62.5,14,62.5,14L50,13.3l-12.1,0.4L55,19.9
			l3.7,1.5L60.9,31.5z"/>
		<path class="st4" d="M37.8,13.7l-5.4,3.9l-4,4.9l-2.9,23L15.4,48L8.7,65.3L4.5,81l10.4,12.2l8.8,1.5l31.6,0.2L67,94.5l-5.1-22.9
			c0,0-0.4-6.2-0.6-12.6c-0.2-6.3-1.8-28.4-1.5-29.1c0.4-0.7-1.2-8.4-1.2-8.4S42,13.3,37.8,13.7z"/>
		<polygon class="st5" points="15.4,48 28.6,60.8 36.5,59.3 29.6,49.9 24.5,45.4 		"/>
		<polygon class="st5" points="58.7,21.5 66.9,23.3 64,29.1 60.4,32.5 		"/>
		<path class="st2" d="M5.6,76.5l9.7,11.9l7.9,2.1l37,0.1L61,70.1l2.8,11.4L67,94.5l-9.8,0.1c0,0-32.9-0.4-33.4,0.1
			c-0.6,0.4-8.8-1.5-8.8-1.5l-8.3-9.1L4.5,81L5.6,76.5z"/>
		<g>
			<path class="st0" d="M96.1,49.9l8.7,6.8l0,0l0,0c0,1.1-0.1,2.2-0.2,3.4c0,0.6-0.1,1.1-0.2,1.7c-0.1,0.6-0.1,1.1-0.2,1.7
				c-0.3,2.2-0.8,4.4-1.3,6.6c-1,4.4-2.2,8.7-3.5,13l0,0.1l-0.1,0L84,94.8l-0.4-0.5l0.1-0.1l0.2,0.5L71,91.5l0.2-0.8l12.7,3.5
				l0.5,0.1l-0.4,0.4L84,94.8l-0.4-0.5L99,82.8L99,82.9c1.4-4.2,2.6-8.5,3.6-12.9c0.5-2.2,1-4.4,1.3-6.6c0.1-0.5,0.2-1.1,0.3-1.7
				c0.1-0.6,0.2-1.1,0.2-1.7c0.1-1.1,0.2-2.2,0.2-3.3l0,0L96.1,49.9z"/>
			<path class="st5" d="M96.2,49.6c-1.6,1.7-3.1,3.5-4.5,5.3c-1.4,1.8-2.8,3.7-4.1,5.7c-1.3,1.9-2.5,3.9-3.6,6
				c-1.1,2-2.1,4.1-2.9,6.3l0-0.1c-0.3,2.1-0.7,4.1-1,6.2c-0.3,2.1-0.7,4.1-1.1,6.2c0.2-2.1,0.4-4.2,0.7-6.2
				c0.3-2.1,0.5-4.2,0.8-6.2l0,0l0,0c0.8-2.2,1.8-4.4,2.9-6.4c1.1-2.1,2.3-4.1,3.7-6c1.3-1.9,2.8-3.8,4.3-5.6
				C92.8,52.8,94.5,51.1,96.2,49.6z"/>
			<path class="st5" d="M66.2,95.1c0,0-0.6-4-1.7-9.9c-0.6-2.9-1.2-6.4-2.2-10c-1-3.6-2.4-7.4-2.6-11.6c-0.1-1,0-2.1,0.1-3
				c0-1,0-2,0-2.9c-0.1-2-0.2-3.9-0.3-5.8c-0.2-3.8-0.3-7.3-0.4-10.3c-0.3-6-0.4-10-0.4-10l3.2,0c0,0,0,4-0.1,10c0,3,0,6.5-0.1,10.3
				c0,1.9,0,3.8,0,5.8c0,1-0.1,2-0.1,3c-0.1,1.1-0.2,2-0.2,3c-0.1,3.9,1.1,7.7,2,11.4c0.8,3.7,1.3,7.2,1.7,10.2
				C65.8,91.1,66.2,95.1,66.2,95.1z"/>
			<path class="st5" d="M58.7,32c-0.2-0.8-0.4-1.7-0.6-2.5c-0.2-0.8-0.3-1.7-0.4-2.6c-0.2-1.7-0.2-3.4-0.1-5.1l0.1,0.5l0-0.1
				l0.5,0.6c-3.2-1.8-6.4-3.6-9.7-5.1c-3.3-1.6-6.7-2.9-10.3-3.9c3.6,0.7,7.2,1.6,10.7,2.9c3.5,1.2,6.9,2.7,10.3,4.2l0.3,0.1
				l0.2,0.4l0,0.1l0.1,0.2l0,0.3c0.1,1.6,0.3,3.2,0.6,4.7c0.2,0.8,0.4,1.5,0.6,2.3c0.2,0.8,0.5,1.4,0.8,2.2L58.7,32z"/>
			<path class="st5" d="M60.9,31.9c0.6-0.6,1.2-1.3,1.7-1.9c0.5-0.7,1-1.4,1.5-2.1c0.9-1.4,1.6-2.9,2.1-4.5l0.2-0.5l0.6,0.1
				c3.7,0.5,7.4,0.5,11.2,0.5c1.9,0,3.8,0,5.7,0c1.9,0,3.8,0.2,5.7,0.4l-5.6,0.6c-1.9,0.2-3.8,0.3-5.7,0.4c-1.9,0.1-3.8,0.1-5.7,0
				c-1,0-1.9-0.1-2.9-0.2c-1-0.1-1.9-0.3-2.9-0.4l0.8-0.4c-0.7,1.6-1.6,3.2-2.7,4.6C63.7,29.8,62.4,30.9,60.9,31.9z"/>
			<path class="st5" d="M38.2,13.6c0,0,1.2-0.2,3.4-0.4c2.2-0.2,5.3-0.4,9.1-0.3c3.8,0.1,8.2,0.4,12.9,1.2c4.7,0.8,9.6,2.1,14.3,3.7
				c2.4,0.9,4.7,1.7,7,2.7c1.2,0.5,2.3,1.1,3.3,1.8c1,0.7,1.9,1.7,2.4,2.8c0.5,1.1,0.8,2.3,1.1,3.3c0.3,1.1,0.6,2.2,0.9,3.2
				c0.6,2.1,1.1,4.1,1.5,5.9c0.9,3.7,1.3,6.8,1.5,9C96,48.8,96,50,96,50s-0.1-1.3-0.3-3.4c-0.3-2.2-0.9-5.3-1.8-8.9
				c-0.5-1.8-1-3.8-1.6-5.9c-0.3-1-0.7-2.1-1-3.2c-0.3-1.1-0.6-2.2-1.1-3.2c-0.9-2.1-3.2-3.3-5.4-4.2c-2.3-0.9-4.7-1.7-7-2.6
				c-9.4-3.4-19.4-5-27-5.3c-3.8-0.2-6.9-0.1-9.1,0C39.4,13.5,38.2,13.6,38.2,13.6z"/>
			<path class="st5" d="M83.2,94.1c0.5-1.6,0.8-3.1,1-4.8c0.3-1.6,0.4-3.3,0.6-4.9c0.3-3.3,0.4-6.6,0.5-9.9l0-0.3l0.3-0.1l0.5-0.2
				L85.9,74c5.6-6.4,11.9-12.2,18.8-17.2C98,62,91.9,68,86.6,74.6l-0.1,0.1l-0.1,0l-0.5,0.2l0.3-0.4c-0.1,3.3,0,6.6-0.2,10
				c-0.1,1.7-0.2,3.3-0.4,5c-0.2,1.6-0.5,3.4-0.9,5L83.2,94.1z"/>
			
				<rect x="83" y="70.8" transform="matrix(0.3404 -0.9403 0.9403 0.3404 -14.1362 126.9569)" class="st5" width="0.8" height="5.6"/>
			<path class="st5" d="M25.7,44.6c0,0,2.9,3.5,5.6,7.3c1.3,1.9,2.6,3.8,3.5,5.2c0.9,1.5,1.5,2.4,1.5,2.4s-0.6-1-1.6-2.4
				c-1-1.4-2.3-3.2-3.8-5.1c-2.8-3.6-5.9-7-5.9-7L25.7,44.6z"/>
			<path class="st0" d="M79.6,84.9c-0.1-0.2-0.3-0.1-0.4,0c-0.1,0.1-0.2,0.2-0.4,0.4l-0.7,0.8c-0.2,0.3-0.5,0.5-0.8,0.7l-0.8,0.7
				l-3.3,2.7l-6.7,5.3l-0.4-1.1l0.6,0l0,1.2c-2.1,0.1-4.3,0-6.4,0.1l-6.4,0c-4.3,0-8.5-0.1-12.8-0.1c-4.3-0.1-8.5-0.2-12.8-0.3
				c-2.1-0.1-4.3-0.2-6.4-0.5c-2.1-0.3-4.3-0.7-6.3-1.4c2.1,0.5,4.2,0.7,6.3,0.8c2.1,0.1,4.2,0.1,6.4,0.1c4.3-0.1,8.5-0.2,12.8-0.2
				c4.3,0,8.5,0,12.8,0.1l6.4,0.1c2.1,0,4.3,0.1,6.4,0.2l0,1.2l-0.6,0l-2,0.1l1.6-1.1l6.9-4.9l3.5-2.4l0.9-0.6
				c0.3-0.2,0.6-0.4,0.8-0.6l0.7-0.8c0.1-0.1,0.3-0.2,0.4-0.3C79.2,84.8,79.5,84.7,79.6,84.9z"/>
			<path class="st2" d="M15.8,93.1c-2.3-1.6-4.4-3.5-6.3-5.5c-1.9-2.1-3.6-4.4-5-6.8l-0.1-0.1l0-0.2c0.1-0.7,0.2-1.4,0.3-2.1
				l0.3-2.1c0.2-1.4,0.5-2.8,0.8-4.2c0.6-2.8,1.4-5.5,2.2-8.2c0.9-2.7,1.8-5.4,2.9-8c1.1-2.6,2.3-5.2,3.6-7.7l-0.1,0.2l0-0.3
				l0.1-0.5l0.5-0.1l9.7-2.8l-0.4,0.2l0.4-0.4l-0.2,0.4c0.6-3.8,1.2-7.6,1.9-11.3l2-11.3l0.5,0.5l-0.1,0L28,22.8l0.5-0.8
				c1.1-1.9,2.6-3.5,4.2-4.9c1.6-1.4,3.4-2.6,5.4-3.5c-1.8,1.1-3.5,2.4-5.1,3.8c-1.5,1.5-2.9,3.1-3.8,4.9l-0.5-0.6l0.1,0l0.6-0.2
				l-0.1,0.6l-1.5,11.3c-0.5,3.8-1.1,7.5-1.6,11.3l0,0.2l-0.1,0.2l-0.4,0.4l-0.1,0.2L25.2,46l-9.6,2.9l0.6-0.6l0,0.3l0,0.1L16,48.8
				c-1.3,2.5-2.5,5-3.6,7.6c-1.1,2.6-2.1,5.2-3,7.9c-0.9,2.7-1.6,5.4-2.3,8.1c-0.3,1.4-0.7,2.7-0.9,4.1l-0.4,2.1
				c-0.1,0.7-0.2,1.4-0.4,2.1l-0.1-0.3c1.3,2.4,2.8,4.7,4.6,6.9C11.6,89.3,13.6,91.3,15.8,93.1z"/>
			<path class="st5" d="M37,73.7c0.7-4.8,0.5-9.8-0.6-14.5c-0.2-0.6-1.1-0.4-1,0.3c1.3,4.7,1.8,9.3,1.5,14.2
				C36.9,73.8,37,73.8,37,73.7L37,73.7z"/>
			<path class="st5" d="M52.8,76c0.7-1.9,1.1-3.8,1.3-5.8c0-0.3-0.5-0.3-0.5,0C53.5,72.2,53.2,74.2,52.8,76
				C52.7,76.1,52.8,76.1,52.8,76L52.8,76z"/>
			<path class="st5" d="M53.9,70.6c2.4-1.1,4.6-2.7,6.7-4.3c0.6-0.5-0.3-1.3-0.8-0.8c-2,1.6-4.1,3.2-6,4.9
				C53.6,70.5,53.8,70.7,53.9,70.6L53.9,70.6z"/>
			<path class="st5" d="M50.9,44.3c0.4-1.1,0.8-2.2,1.1-3.3c0.1-0.3-0.3-0.4-0.4-0.1c-0.4,1.1-0.7,2.2-1,3.3
				C50.6,44.4,50.9,44.4,50.9,44.3L50.9,44.3z"/>
			<path class="st5" d="M52.2,41.1c3-2.4,5.7-5.1,8.1-8c0.6-0.7-0.4-1.7-1-1c-2.5,2.9-5,5.8-7.4,8.7C51.7,41.1,52,41.3,52.2,41.1
				L52.2,41.1z"/>
			<path class="st5" d="M54.6,23c1.1,0.3,2.4,0.3,3.5,0.1c0.7-0.1,0.4-1.2-0.3-1C56.8,22.3,55.7,22.5,54.6,23
				C54.6,22.9,54.6,23,54.6,23L54.6,23z"/>
			<path class="st5" d="M26,80.9c-0.1-3.1-0.6-6.1-0.7-9.2c0-0.3-0.5-0.3-0.5,0c0,3.1,0.2,6.3,1,9.2C25.9,81,26,81,26,80.9L26,80.9z
				"/>
			<path class="st5" d="M25.4,71.9c1.6-4,3.2-8,4.2-12.2c0.2-0.8-1-1.1-1.2-0.3c-1,4.2-2,8.4-3.2,12.5C25.1,72,25.4,72.1,25.4,71.9
				L25.4,71.9z"/>
			<path class="st5" d="M15.4,88.2c2.7,0.8,5.4,1.7,8.1,2.6c0.4,0.1,0.6-0.5,0.3-0.7c-2.6-1.1-5.5-1.8-8.4-2.1
				C15.4,88.1,15.4,88.2,15.4,88.2L15.4,88.2z"/>
			<path class="st5" d="M24.1,90.8c11.5,0.7,23.3,0,34.9-0.6c0.6,0,0.6-1,0-1c-11.6,0.5-23.3,0.5-34.9,1.3
				C23.9,90.5,23.9,90.8,24.1,90.8L24.1,90.8z"/>
			<path class="st5" d="M35.6,34c-1,2.2-1.5,4.7-1.9,7.1c-0.1,0.3,0.4,0.4,0.4,0.1c0.4-2.4,1.1-4.7,1.6-7.1
				C35.7,34,35.6,33.9,35.6,34L35.6,34z"/>
			<path class="st5" d="M26.7,43.5c2.6-0.5,5.1-1.2,7.5-2.3c0.4-0.2,0.1-1-0.3-0.8c-2.4,0.9-4.8,1.9-7.3,2.7
				C26.4,43.2,26.5,43.5,26.7,43.5L26.7,43.5z"/>
		</g>
	</g>
	<path class="st5" d="M43.9,53.1c1.1-0.8,2.3-1.7,3.4-2.6c0.1-0.1,0-0.4-0.2-0.3C45.9,51.2,44.9,52.1,43.9,53.1
		C43.8,53.1,43.8,53.2,43.9,53.1L43.9,53.1z"/>
	<path class="st5" d="M50.4,48.1c0.4-0.5,0.8-1,1.2-1.5c0.1-0.1-0.1-0.3-0.2-0.2c-0.4,0.5-0.8,1-1.2,1.5
		C50.2,48.1,50.3,48.2,50.4,48.1L50.4,48.1z"/>
	<path class="st5" d="M52.6,45.8c2.4-2.3,5-4.5,7.4-6.7c0.4-0.4-0.2-1.1-0.6-0.6c-2.3,2.4-4.6,4.8-7,7.2
		C52.2,45.7,52.4,46,52.6,45.8L52.6,45.8z"/>
	<path class="st5" d="M83.4,71.1c0.4,0.1,0.8,0.3,1.2,0.4c0.2,0.1,0.3-0.3,0.1-0.3c-0.4-0.1-0.8-0.1-1.2-0.2
		C83.3,71,83.3,71.1,83.4,71.1L83.4,71.1z"/>
	<path class="st5" d="M86,71.7c0.5,0.2,1,0.4,1.4,0.7c0.3,0.1,0.4-0.2,0.1-0.4c-0.5-0.2-1-0.4-1.5-0.6C86,71.4,85.9,71.6,86,71.7
		L86,71.7z"/>
	<path class="st5" d="M95.8,52.2c0.5,0.2,1,0.4,1.5,0.6c0.2,0.1,0.3-0.2,0.1-0.2c-0.5-0.2-1-0.4-1.5-0.5
		C95.7,52.1,95.7,52.2,95.8,52.2L95.8,52.2z"/>
	<path class="st5" d="M98.7,53.5c1.8,1.2,3.4,2.6,5.1,4c0.6,0.4,1.2-0.3,0.6-0.8c-1.7-1.3-3.7-2.4-5.6-3.4
		C98.7,53.2,98.5,53.4,98.7,53.5L98.7,53.5z"/>
	<path class="st5" d="M90.2,66.9c4.9-2.5,9.6-5.5,14-8.8c0.6-0.4,0-1.4-0.6-0.9C99.2,60.5,94.7,63.7,90.2,66.9
		C90.1,66.8,90.1,66.9,90.2,66.9L90.2,66.9z"/>
	<path class="st5" d="M79.1,91.6c1.3,1.2,2.8,2,4.5,2.5c0.4,0.1,0.5-0.5,0.2-0.6c-1.6-0.4-3.1-1.1-4.5-2
		C79.2,91.4,79.1,91.5,79.1,91.6L79.1,91.6z"/>
	<path class="st5" d="M57.7,21.3c5.6,1.2,11.2,2,16.7,3.2c0.4,0.1,0.6-0.5,0.2-0.7c-5.5-1.3-11.2-2.5-16.9-2.8
		C57.6,21.2,57.6,21.3,57.7,21.3L57.7,21.3z"/>
	<path class="st5" d="M15.4,82.4c3.2-3.4,6.4-7,9.4-10.6c0.2-0.2-0.1-0.6-0.4-0.4c-3.2,3.5-6.3,7.1-9.3,10.7
		C15,82.3,15.2,82.6,15.4,82.4L15.4,82.4z"/>
	<path class="st5" d="M20.7,80c0.3-0.9,0.8-1.6,1.4-2.3c0.1-0.2-0.1-0.4-0.2-0.2c-0.7,0.7-1.1,1.6-1.4,2.5
		C20.5,80,20.7,80.1,20.7,80L20.7,80z"/>
	<path class="st5" d="M23.3,75.9c0.8-1.6,1.8-3.2,2.6-4.9c0.2-0.4-0.4-0.7-0.6-0.3c-0.8,1.7-1.4,3.4-2.2,5.1
		C23,75.9,23.2,76,23.3,75.9L23.3,75.9z"/>
	<path class="st5" d="M33.5,79.5c1.2-2.2,2.7-4.2,3.8-6.5c0.3-0.6-0.6-1.2-1-0.6c-1.2,2.2-2,4.6-3.1,6.9
		C33.2,79.5,33.4,79.6,33.5,79.5L33.5,79.5z"/>
</g>
</svg>
