<?xml version="1.0" encoding="utf-8"?>
<!-- Generator: Adobe Illustrator 21.1.0, SVG Export Plug-In . SVG Version: 6.00 Build 0)  -->
<svg version="1.1" id="Layer_1" xmlns="http://www.w3.org/2000/svg" xmlns:xlink="http://www.w3.org/1999/xlink" x="0px" y="0px"
	 viewBox="0 0 216 216" style="enable-background:new 0 0 216 216;" xml:space="preserve">
<style type="text/css">
	.st0{fill:#B4BEBE;}
	.st1{fill:#DC1A15;}
	.st2{fill:#C8D2D2;}
	.st3{fill:#979797;}
</style>
<g>
	<path class="st0" d="M180.5,82.8c0.3,7-77,44.9-77,44.9s-9.6-7.7-24.9-2.6l-0.2-4.9L180.5,82.8z"/>
	<path class="st1" d="M78.9,121.7c-0.2-0.4-0.3-0.8-0.5-1.2c-3.6-6.7-14.9-9.2-25-5.3c-10.7,4.1-17.5,14.3-14.6,21.9
		c2,5.1,7.3,10.1,21.3,4.7c9.7-3.7,19.2-9.9,19.4-16.9v0C79.5,123.8,79.3,122.7,78.9,121.7z M58.2,136.9c-8.2,3.2-12.5,2.5-14.1-1.8
		c-1.7-4.3,3.1-11.8,11.2-15c8.2-3.2,16.7-0.8,18.4,3.5C75.4,128,66.4,133.8,58.2,136.9z"/>
	<path class="st2" d="M141.1,38.3c-7,0-41,79.1-41,79.1s8.1,9.3,3.8,24.7h4.9L141.1,38.3z"/>
	<circle class="st3" cx="109.8" cy="115.3" r="2.8"/>
	<path class="st1" d="M109.5,139.8L109.5,139.8l-5-0.4c-3.4,8.7-9.6,7.1-15.2,16.1c-0.8,1.2-1.5,2.4-2,3.9c-3,7.4-0.9,15,4.7,17.2
		c5.6,2.2,12.3-1.9,15.2-9.3C110.7,158.9,108.5,149.4,109.5,139.8z M103.1,165.6c-2,4.9-6.2,7.9-9.5,6.5c-3.3-1.3-4.4-6.3-2.4-11.3
		c2-4.9,6.2-7.8,9.5-6.5C104,155.7,105.1,160.7,103.1,165.6z"/>
	<path class="st1" d="M78.6,125.2c2.5-0.8,4.9-1.3,7-1.6l-1.5-5.5l-5.8,2.1L78.6,125.2z"/>
</g>
</svg>
